<svg xmlns="http://www.w3.org/2000/svg" viewBox="0 0 500 500"><g id="freepik--Hearts--inject-18"><path d="M276.5,81.7c-6.48,4.4-15.74,4-15.74,4S255.6,78,256,70.15c.36-6.52,5.06-11.13,9.73-10.09,6.68,1.5,2.54,12.27,2.54,12.27s7.07-9.12,11.82-4.17C283.41,71.61,281.9,78,276.5,81.7Z" style="fill:#FFC727"></path><path d="M257.35,40.44c-1.81,4.86-7,8.18-7,8.18s-5.74-2.17-8.51-6.54c-2.32-3.66-1.55-7.95,1.36-9.17,4.18-1.76,6.08,5.63,6.08,5.63s.32-7.63,4.77-6.78C257.2,32.35,258.85,36.39,257.35,40.44Z" style="fill:#FFC727"></path><path d="M356.76,208.29C325.1,272.13,249.81,310,249.81,310s-75.3-37.88-106.89-101.72c-26.36-53.24-9.66-110.79,31.94-123.35,59.64-18,74.95,50.36,74.95,50.36s15.3-68.4,75-50.36C366.42,97.51,383.12,155.05,356.76,208.29Z" style="fill:#FFC727"></path><path d="M356.76,208.29C325.1,272.13,249.81,310,249.81,310s-75.3-37.88-106.89-101.72c-26.36-53.24-9.66-110.79,31.94-123.35,59.64-18,74.95,50.36,74.95,50.36s15.3-68.4,75-50.36C366.42,97.51,383.12,155.05,356.76,208.29Z" style="fill:#fff;opacity:0.5"></path><path d="M132.78,155.52c-1.05,5.07-5.65,9.13-5.65,9.13s-6-1.28-9.4-5.19c-2.84-3.27-2.72-7.62,0-9.27,3.86-2.37,6.85,4.66,6.85,4.66s-.83-7.6,3.7-7.43C131.42,147.54,133.65,151.29,132.78,155.52Z" style="fill:#FFC727"></path><path d="M373.68,126.28c-7.61,7.44-20.09,9.07-20.09,9.07s-8.76-9-10.07-19.61c-1.09-8.81,4.1-16.1,10.59-15.82,9.3.39,6.34,15.79,6.34,15.79s7.28-13.89,14.81-8.4C380.5,111.13,380,120.07,373.68,126.28Z" style="fill:#FFC727"></path></g><g id="freepik--character-2--inject-18"><path d="M262,143.25s17.38-11.31,34.28-2.69,26.51,32.39,25.35,53.06,16.82,32.84,19.85,47.89-6.54,22.87-9.31,31.11c-3.17,9.44,15,40.64-24.1,51.28-48.84,13.3-70.18-15.26-67.08-40.51,1.52-12.37,7.79-21.56,6.89-31.4s-8.59-17.13-5.88-29.91,7.71-11.46,8.18-31.23S244.66,148,262,143.25Z" style="fill:#263238"></path><path d="M292.77,140.36a60.88,60.88,0,0,1,25.63,26,55.39,55.39,0,0,1,5.6,17.46c1.14,7.95.49,15.52,4.12,23,5.81,12,16.28,21.65,16.91,35.52a33.94,33.94,0,0,1-4.54,18.52c-3.79,6.58-9.51,12-12.57,19-.12.29-.58.08-.46-.2,2.52-6.19,7-11.11,10.62-16.76a34.52,34.52,0,0,0,5.62-22.32c-1.42-13.12-11.74-22.48-17.14-34.12-2.44-5.26-3-10.51-3.25-16.21a58.71,58.71,0,0,0-4.13-19.58c-5.06-12.44-14.56-22.79-26.54-30.1C292.54,140.47,292.66,140.3,292.77,140.36Z" style="fill:#263238"></path><path d="M325.38,288.08a0,0,0,1,1,0,.08A0,0,0,1,1,325.38,288.08Z" style="fill:#263238"></path><path d="M240.85,279.86c.78-6,3.48-11.56,4.26-17.51.95-7.17-1.42-14.06-3.33-20.88-2.72-9.72-3.23-19.07.46-28.73,2.39-6.24,5.43-12.14,7.06-18.64a73.08,73.08,0,0,0,2.11-21.53c0-.16.25-.18.26,0a67,67,0,0,1-4.25,30.82c-2.26,5.77-5.22,11.25-6.3,17.37-1.3,7.35,0,14.26,1.82,21.39,1.23,4.75,2.65,9.55,3,14.46.36,5.11-.91,9.76-2.37,14.67a50.11,50.11,0,0,0,3.15,37.27c.1.2-.27.38-.38.18A47.54,47.54,0,0,1,240.85,279.86Z" style="fill:#263238"></path><path d="M342.62,239.65c-1.29-10.8-9.52-17.55-14.91-26.58-4.07-6.81-7-14.2-6.51-22.11,0-.13.25-.12.25,0,.3,11.36,5.92,21.24,13,30.22,4.72,6,8.69,11.74,9.33,19.32s-1.9,13.92-5.71,20.41c-2.71,4.62-5.4,8.94-6.29,14.22s-.17,10.64.5,15.85c0,.27-.42.3-.46,0-1.37-8-2.11-15.91,1.45-23.65C337.67,257.87,343.94,250.62,342.62,239.65Z" style="fill:#263238"></path><path d="M238.34,272.32a66.31,66.31,0,0,1,5.49-11c3.72-6.42,4-11.41,2.07-18.54a.14.14,0,0,1,.27-.09c2.48,5.8,3.35,10.71.2,16.48-4.4,8.05-8.75,15.41-9.06,24.63-.55,16.36,9.94,30.76,25.65,37.78.23.1.06.41-.17.32-13.13-5.14-22.87-15.55-25.74-28.5A38.31,38.31,0,0,1,238.34,272.32Z" style="fill:#263238"></path><path d="M342.2,342.77s0,.19-.15.6c0,.12-.08.29-.13.46-.33,1.31-1,3.77-1.88,7.22-.13.53-.28,1.07-.41,1.63-.11.37-.2.76-.31,1.16s-.25,1-.4,1.5c-.36,1.42-.75,2.94-1.17,4.54-.17.65-.34,1.3-.52,2-.7,2.7-1.47,5.64-2.29,8.79-.32,1.25-.65,2.52-1,3.83-.17.58-.32,1.19-.47,1.79-.25.92-.48,1.85-.73,2.79l-.05.17c-.25,1-.52,2-.77,3a.07.07,0,0,0,0,0c-.27,1-.55,2.07-.82,3.13s-.61,2.32-.92,3.5c-.26,1-.51,2-.78,3.05a.29.29,0,0,0,0,.09h0c-.17.59-.33,1.2-.47,1.79s-.31,1.2-.47,1.8-.25.95-.37,1.43-.31,1.15-.46,1.74-.31,1.17-.45,1.77c-.09.3-.17.6-.25.91l-.95,3.69c-2.59,9.92-5.35,20.6-8.22,31.67-.51,2-1,3.94-1.54,5.94q-1.51,5.85-3,11.8H220.11c3.88-12.87,7.71-25.46,11.33-37.29,12.89-42.15,23.11-74.53,23.11-74.53Z" style="fill: rgb(247, 169, 160);"></path><g style="opacity:0.1"><path d="M342.2,342.77s0,.19-.15.6c0,.12-.08.29-.13.46-.33,1.31-1,3.77-1.88,7.22-.13.53-.28,1.07-.41,1.63-.11.37-.2.76-.31,1.16s-.25,1-.4,1.5c-.36,1.42-.75,2.94-1.17,4.54-.17.65-.34,1.3-.52,2-.7,2.7-1.47,5.64-2.29,8.79-.32,1.25-.65,2.52-1,3.83-.17.58-.32,1.19-.47,1.79-.25.92-.48,1.85-.73,2.79l-.05.17c-.25,1-.52,2-.77,3a.07.07,0,0,0,0,0c-.27,1-.55,2.07-.82,3.13s-.61,2.32-.92,3.5c-.26,1-.51,2-.78,3.05a.29.29,0,0,0,0,.09h0c-.17.59-.33,1.2-.47,1.79s-.31,1.2-.47,1.8-.25.95-.37,1.43-.31,1.15-.46,1.74-.31,1.17-.45,1.77c-.09.3-.17.6-.25.91l-.95,3.69c-2.59,9.92-5.35,20.6-8.22,31.67-.51,2-1,3.94-1.54,5.94q-1.51,5.85-3,11.8H286.22L273.89,342.77Z"></path></g><path d="M376.78,454.59H297.24c0-1.16-.08-2.28-.11-3.33-.17-6.09-.3-10.23-.33-11.7h0l0-.58-.34-.22-1.43-.87h0c-6.86-4.12-12.54-7-16.6-8.94h0l-1.44-.66h0c-.48-.23-.93-.43-1.34-.61-2.64-1.16-4.08-1.68-4.08-1.68l-.28-.81v0c-.8-2.35-1.53-4.75-2.22-7.22-.15-.52-.3-1-.44-1.57,0,0,0,0,0-.06a.19.19,0,0,1,0-.07,271.08,271.08,0,0,1-5.82-26.5.17.17,0,0,1,0-.07,438.18,438.18,0,0,1-5.32-46.89H363.83s17.93,53.21,12.61,88.75C376.32,432.36,376.32,441.17,376.78,454.59Z" style="fill: rgb(247, 169, 160);"></path><path d="M254.55,342.77l-35.23,99.37s38.66,7.12,70.14,8.27,102.28-6.89,102.28-6.89-7.66-53.95-27.91-100.75Z" style="fill:#FFC727"></path><path d="M241.53,387.94a8.52,8.52,0,0,1-3.4,3.2s-.24-.12-.6-.35h0l2.41-6.79a1.27,1.27,0,0,1,.6.05C241.85,384.44,242.37,386.26,241.53,387.94ZM274,384c-1.88-.58-2.38,2.7-2.38,2.7s-.47-3.29-2.36-2.73c-1.31.39-1.85,2.21-1,3.9a8.49,8.49,0,0,0,3.37,3.23,8.52,8.52,0,0,0,3.39-3.2C275.78,386.26,275.26,384.44,274,384Zm33.41,0c-1.88-.58-2.38,2.7-2.38,2.7s-.47-3.29-2.35-2.73c-1.32.39-1.86,2.21-1,3.9a8.5,8.5,0,0,0,3.36,3.23,8.52,8.52,0,0,0,3.39-3.2C309.2,386.26,308.68,384.44,307.36,384Zm33.42,0c-1.89-.58-2.38,2.7-2.38,2.7s-.47-3.29-2.36-2.73c-1.32.39-1.85,2.21-1,3.9a8.5,8.5,0,0,0,3.36,3.23,8.52,8.52,0,0,0,3.4-3.2C342.61,386.26,342.09,384.44,340.78,384Zm33.41,0c-1.88-.58-2.38,2.7-2.38,2.7s-.47-3.29-2.36-2.73c-1.31.39-1.85,2.21-1,3.9a8.43,8.43,0,0,0,3.36,3.23,8.52,8.52,0,0,0,3.39-3.2C376,386.26,375.51,384.44,374.19,384Zm-116.95-26c-1.88-.58-2.38,2.7-2.38,2.7s-.47-3.28-2.35-2.72c-1.32.39-1.86,2.2-1,3.89a8.43,8.43,0,0,0,3.36,3.23,8.44,8.44,0,0,0,3.39-3.2C259.08,360.31,258.56,358.48,257.24,358.08Zm33.42,0c-1.89-.58-2.39,2.7-2.39,2.7s-.46-3.28-2.35-2.72c-1.32.39-1.85,2.2-1,3.89a8.5,8.5,0,0,0,3.36,3.23,8.43,8.43,0,0,0,3.4-3.2C292.49,360.31,292,358.48,290.66,358.08Zm33.41,0c-1.88-.58-2.38,2.7-2.38,2.7s-.47-3.28-2.36-2.72c-1.31.39-1.85,2.2-1,3.89a8.49,8.49,0,0,0,3.37,3.23,8.44,8.44,0,0,0,3.39-3.2C325.9,360.31,325.38,358.48,324.07,358.08Zm33.42,0c-1.89-.58-2.39,2.7-2.39,2.7s-.47-3.28-2.35-2.72c-1.32.39-1.86,2.2-1,3.89a8.5,8.5,0,0,0,3.36,3.23,8.43,8.43,0,0,0,3.4-3.2C359.32,360.31,358.8,358.48,357.49,358.08Zm-117,79.1c-1.89-.58-2.39,2.7-2.39,2.7s-.46-3.29-2.35-2.73c-1.32.39-1.86,2.21-1,3.9a8.5,8.5,0,0,0,3.36,3.23,8.52,8.52,0,0,0,3.4-3.2C242.37,439.4,241.85,437.58,240.54,437.18Zm33.41,0c-1.88-.58-2.38,2.7-2.38,2.7s-.47-3.29-2.36-2.73c-1.31.39-1.85,2.21-1,3.9a8.49,8.49,0,0,0,3.37,3.23,8.52,8.52,0,0,0,3.39-3.2C275.78,439.4,275.26,437.58,274,437.18Zm33.41,0c-1.88-.58-2.38,2.7-2.38,2.7s-.47-3.29-2.35-2.73c-1.32.39-1.86,2.21-1,3.9a8.5,8.5,0,0,0,3.36,3.23,8.52,8.52,0,0,0,3.39-3.2C309.2,439.4,308.68,437.58,307.36,437.18Zm33.42,0c-1.89-.58-2.38,2.7-2.38,2.7s-.47-3.29-2.36-2.73c-1.32.39-1.85,2.21-1,3.9a8.5,8.5,0,0,0,3.36,3.23,8.52,8.52,0,0,0,3.4-3.2C342.61,439.4,342.09,437.58,340.78,437.18Zm33.41,0c-1.88-.58-2.38,2.7-2.38,2.7s-.47-3.29-2.36-2.73c-1.31.39-1.85,2.21-1,3.9a8.43,8.43,0,0,0,3.36,3.23,8.52,8.52,0,0,0,3.39-3.2C376,439.4,375.51,437.58,374.19,437.18Zm-116.95-26c-1.88-.58-2.38,2.7-2.38,2.7s-.47-3.28-2.35-2.72c-1.32.39-1.86,2.2-1,3.89a8.43,8.43,0,0,0,3.36,3.23,8.44,8.44,0,0,0,3.39-3.2C259.08,413.45,258.56,411.63,257.24,411.22Zm33.42,0c-1.89-.58-2.39,2.7-2.39,2.7s-.46-3.28-2.35-2.72c-1.32.39-1.85,2.2-1,3.89a8.5,8.5,0,0,0,3.36,3.23,8.43,8.43,0,0,0,3.4-3.2C292.49,413.45,292,411.63,290.66,411.22Zm33.41,0c-1.88-.58-2.38,2.7-2.38,2.7s-.47-3.28-2.36-2.72c-1.31.39-1.85,2.2-1,3.89a8.49,8.49,0,0,0,3.37,3.23,8.44,8.44,0,0,0,3.39-3.2C325.9,413.45,325.38,411.63,324.07,411.22Zm33.42,0c-1.89-.58-2.39,2.7-2.39,2.7s-.47-3.28-2.35-2.72c-1.32.39-1.86,2.2-1,3.89a8.5,8.5,0,0,0,3.36,3.23,8.43,8.43,0,0,0,3.4-3.2C359.32,413.45,358.8,411.63,357.49,411.22Zm28.07.29a3,3,0,0,0-.43,3.58,6.6,6.6,0,0,0,1.69,2.08Q386.24,414.44,385.56,411.51Z" style="fill:#fff"></path><path d="M363.83,342.79l-109.28,0,4-20.6s-11.33-13.48-8.76-29c3.6-21.76,25.88-58.16,28.36-60.7,10-10.2,22.67-12.69,31.19-5.67C347.35,258.13,363.83,342.79,363.83,342.79Z" style="fill:#FFC727"></path><path d="M308.35,228.52a8.46,8.46,0,0,1-3.39,3.19,8.41,8.41,0,0,1-3.36-3.23c-.83-1.68-.29-3.5,1-3.89,1.88-.56,2.35,2.72,2.35,2.72a4.44,4.44,0,0,1,1.25-2.54,16.6,16.6,0,0,1,2.48,1.56A3.43,3.43,0,0,1,308.35,228.52ZM274,277.75c-1.88-.57-2.38,2.71-2.38,2.71s-.47-3.29-2.36-2.73c-1.31.39-1.85,2.21-1,3.89a8.47,8.47,0,0,0,3.37,3.24,8.52,8.52,0,0,0,3.39-3.2C275.78,280,275.26,278.16,274,277.75Zm33.41,0c-1.88-.57-2.38,2.71-2.38,2.71s-.47-3.29-2.35-2.73c-1.32.39-1.86,2.21-1,3.89a8.47,8.47,0,0,0,3.36,3.24,8.52,8.52,0,0,0,3.39-3.2C309.2,280,308.68,278.16,307.36,277.75Zm33.42,0c-1.89-.57-2.38,2.71-2.38,2.71s-.47-3.29-2.36-2.73c-1.32.39-1.85,2.21-1,3.89a8.47,8.47,0,0,0,3.36,3.24,8.52,8.52,0,0,0,3.4-3.2C342.61,280,342.09,278.16,340.78,277.75ZM290.66,251.8c-1.89-.58-2.39,2.7-2.39,2.7s-.46-3.29-2.35-2.72c-1.32.39-1.85,2.2-1,3.89a8.5,8.5,0,0,0,3.36,3.23,8.52,8.52,0,0,0,3.4-3.2C292.49,254,292,252.2,290.66,251.8Zm33.41,0c-1.88-.58-2.38,2.7-2.38,2.7s-.47-3.29-2.36-2.72c-1.31.39-1.85,2.2-1,3.89a8.49,8.49,0,0,0,3.37,3.23,8.52,8.52,0,0,0,3.39-3.2C325.9,254,325.38,252.2,324.07,251.8ZM274,330.9c-1.88-.58-2.38,2.7-2.38,2.7s-.47-3.29-2.36-2.73c-1.31.39-1.85,2.21-1,3.9a8.49,8.49,0,0,0,3.37,3.23,8.52,8.52,0,0,0,3.39-3.2C275.78,333.12,275.26,331.3,274,330.9Zm33.41,0c-1.88-.58-2.38,2.7-2.38,2.7s-.47-3.29-2.35-2.73c-1.32.39-1.86,2.21-1,3.9A8.5,8.5,0,0,0,305,338a8.52,8.52,0,0,0,3.39-3.2C309.2,333.12,308.68,331.3,307.36,330.9Zm33.42,0c-1.89-.58-2.38,2.7-2.38,2.7s-.47-3.29-2.36-2.73c-1.32.39-1.85,2.21-1,3.9a8.5,8.5,0,0,0,3.36,3.23,8.52,8.52,0,0,0,3.4-3.2C342.61,333.12,342.09,331.3,340.78,330.9Zm-83.54-26c-1.88-.58-2.38,2.7-2.38,2.7s-.47-3.28-2.35-2.72c-1.32.39-1.86,2.2-1,3.89a8.43,8.43,0,0,0,3.36,3.23,8.44,8.44,0,0,0,3.39-3.2C259.08,307.16,258.56,305.34,257.24,304.94Zm33.42,0c-1.89-.58-2.39,2.7-2.39,2.7s-.46-3.28-2.35-2.72c-1.32.39-1.85,2.2-1,3.89a8.5,8.5,0,0,0,3.36,3.23,8.43,8.43,0,0,0,3.4-3.2C292.49,307.16,292,305.34,290.66,304.94Zm33.41,0c-1.88-.58-2.38,2.7-2.38,2.7s-.47-3.28-2.36-2.72c-1.31.39-1.85,2.2-1,3.89a8.49,8.49,0,0,0,3.37,3.23,8.44,8.44,0,0,0,3.39-3.2C325.9,307.16,325.38,305.34,324.07,304.94Zm29.63.05a1.22,1.22,0,0,0-.95-.07c-1.32.39-1.86,2.2-1,3.89a8.5,8.5,0,0,0,3.36,3.23,6.61,6.61,0,0,0,.71-.42Q354.81,308.4,353.7,305Z" style="fill:#fff"></path><path d="M298.46,310a114.91,114.91,0,0,0-17.09,1.23c-2.81.45-5.58,1-8.35,1.67-1.38.32-2.76.59-4.15.86a18.18,18.18,0,0,1-4.41.42.1.1,0,0,0,0,.2,24.37,24.37,0,0,0,8.24-.08c2.85-.43,5.68-1,8.53-1.46,5.74-.93,11.48-1.86,17.28-2.37C298.75,310.46,298.73,310,298.46,310Z" style="fill:#263238"></path><path d="M312,316.31a124.88,124.88,0,0,0-14-2c-2.35-.19-4.7-.24-7.06-.22-1.13,0-2.25,0-3.38.07s-2.47.26-3.71.28c-.13,0-.15.2,0,.21,1.17,0,2.34.21,3.51.29l3.52.23c2.35.15,4.69.33,7,.47,4.71.27,9.39.58,14.08,1C312.24,316.72,312.25,316.35,312,316.31Z" style="fill:#263238"></path><path d="M302.69,229.87c0,2.55-5.49,19.72-19.3,20.74-8,.6-7.27-14.59-7.27-14.59l-9.83-20.77,23.52-23.61S302.68,228.79,302.69,229.87Z" style="fill: rgb(247, 169, 160);"></path><path d="M294.56,205.53a43.86,43.86,0,0,1-19,29.34l-9.28-19.61,23.52-23.62S292,197.91,294.56,205.53Z" style="fill:#263238"></path><path d="M231.48,187.78c1.33,37.62,24,41.07,32.13,40.77,7.36-.27,32.4-2.13,34.95-39.68s-15.35-48.82-32.23-49.1S230.14,150.16,231.48,187.78Z" style="fill: rgb(247, 169, 160);"></path><path d="M235.56,182.32a24.07,24.07,0,0,1,2.4-1,4.3,4.3,0,0,1,2.65-.58,1.35,1.35,0,0,1,.94,1.35,3.34,3.34,0,0,1-2.24,2.53,4.88,4.88,0,0,1-3.52.34A1.43,1.43,0,0,1,235.56,182.32Z" style="fill:#263238"></path><path d="M263.77,181a24.07,24.07,0,0,0-2.44-.94,4.24,4.24,0,0,0-2.67-.48,1.34,1.34,0,0,0-.89,1.38,3.34,3.34,0,0,0,2.33,2.44,4.9,4.9,0,0,0,3.53.22A1.44,1.44,0,0,0,263.77,181Z" style="fill:#263238"></path><path d="M259.54,210.58c-.51.69-1,1.6-1.9,1.83a7,7,0,0,1-2.84-.21c-.08,0-.15.08-.09.14a3.47,3.47,0,0,0,3.45.88,2.76,2.76,0,0,0,1.65-2.57C259.82,210.5,259.62,210.48,259.54,210.58Z" style="fill:#263238"></path><path d="M247.9,202.37s-.14,3.89,0,5.69c0,.17.46.21,1.07.18,0,0,.05,0,.08,0a8.63,8.63,0,0,0,8-4c.1-.19-.15-.35-.3-.22a13,13,0,0,1-7.61,3c-.18-.48.47-6.63.18-6.63a16.14,16.14,0,0,0-4,1.34c.08-8.1,1.45-16.11,1.41-24.17a.25.25,0,0,0-.49-.07c-2,8.3-2.32,17.61-2.61,26C243.63,204.48,247.21,202.75,247.9,202.37Z" style="fill:#263238"></path><path d="M243,190.89c0-.09-.2.11-.2.21,0,2.44-.45,5.24-2.68,6-.07,0-.07.15,0,.14C242.83,196.93,243.36,193.21,243,190.89Z" style="fill:#263238"></path><path d="M238.18,189.65a7,7,0,0,0,0,1.37,3.65,3.65,0,0,1-.61.9,1.9,1.9,0,0,1-1.9.64c-1.42-.41-1.8-2-1.65-3.5,0-.11.09-.16.14-.09.48.87,1.05,1.77,1.92,1.77s1.41-.7,2.07-1.07c0,0,0,0,0,0Z" style="fill:#263238"></path><path d="M243,193.54a3.71,3.71,0,0,1-.9,1.76,2.7,2.7,0,0,1-2,.78,2.41,2.41,0,0,1-1.87-1.1,4.28,4.28,0,0,1-.62-1.85,7.62,7.62,0,0,1,0-1.17,5.38,5.38,0,0,1,.64-2.34,8.72,8.72,0,0,0,0,1.77,11.18,11.18,0,0,0,.28,1.57c.28,1,.84,1.95,1.67,1.94s1.55-.61,2-1.64a17.21,17.21,0,0,0,.82-3.29A7.68,7.68,0,0,1,243,193.54Z" style="fill:#263238"></path><path d="M257.49,190.27c0-.09.19.11.19.21,0,2.44.44,5.24,2.67,6,.07,0,.07.15,0,.14C257.63,196.31,257.1,192.59,257.49,190.27Z" style="fill:#263238"></path><path d="M262.29,189a7,7,0,0,1,0,1.37,4,4,0,0,0,.61.9,1.87,1.87,0,0,0,1.9.64c1.43-.4,1.8-2,1.65-3.49,0-.11-.08-.16-.13-.09-.48.87-1.05,1.76-1.93,1.77s-1.41-.71-2.07-1.08c0,0,0,0,0,0Z" style="fill:#263238"></path><path d="M257.51,192.92a3.71,3.71,0,0,0,.9,1.76,2.65,2.65,0,0,0,2,.78,2.37,2.37,0,0,0,1.87-1.09,4.17,4.17,0,0,0,.63-1.85,7.62,7.62,0,0,0,0-1.17,5.12,5.12,0,0,0-.64-2.34,8.06,8.06,0,0,1,0,1.77,11.18,11.18,0,0,1-.28,1.57c-.28,1.05-.84,2-1.68,1.93s-1.54-.61-1.94-1.63a18.31,18.31,0,0,1-.82-3.3A7.68,7.68,0,0,0,257.51,192.92Z" style="fill:#263238"></path><path d="M297.76,188.81c-4.26.38-17-9.62-20.39-30,0,0,4.3,18.09,6.08,20.57s-7.14-5.63-10.09-22c0,0-7.71,7.93-14.72,12.13-6.52,3.91-11.91,5.5-12.55,5s9.08-8.17,11.64-12.2c0,0-17.55,16.35-27,18.5-1.09.25-3.81-21.33,9.5-33.16s34.54-9.46,41.72-4.33c0,0,7.53,0,17.17,9.66S302.36,188.4,297.76,188.81Z" style="fill:#263238"></path><path d="M272.62,155.3c0-.46.71-.55.74-.06.44,7.87,2.82,14.43,6.28,21.47,0,.1-.12.19-.17.09C275.32,170.05,272.38,163.35,272.62,155.3Z" style="fill:#263238"></path><path d="M248.75,175.29c10.62-3.83,19.21-9.45,24.54-19.66.11-.22.45-.11.36.13-3.85,10.71-14.21,17.13-24.78,19.93C248.65,175.75,248.53,175.37,248.75,175.29Z" style="fill:#263238"></path><path d="M291.45,189.63s6.72-12.66,12.37-10.4,1.59,19.91-4.33,23a6.38,6.38,0,0,1-8.89-2.36Z" style="fill: rgb(247, 169, 160);"></path><path d="M302.53,184.26a.09.09,0,0,1,.06.16c-4.14,2.3-5.94,6.62-7,11,1.1-1.77,2.75-2.87,5.1-1.59.12.07,0,.26-.09.25a3.9,3.9,0,0,0-4.11,1.88,18.54,18.54,0,0,0-1.62,3.71c-.16.41-.89.29-.79-.17a.43.43,0,0,1,0-.11C293.28,193.85,296.64,185.55,302.53,184.26Z" style="fill:#263238"></path><path d="M321.12,256.92c.89,56-2.25,113.48-24.22,116-21.5,2.48-59.77-36.28-73.62-74.8-2.23-6.22,42.11-28.25,45.92-22.3,5.32,8.3,9.58,21.17,10.32,21.61,1.58.93,11.67-30.13,18.7-51.27C308,216.72,320.72,231.71,321.12,256.92Z" style="fill: rgb(247, 169, 160);"></path><path d="M295.2,341.81a51.35,51.35,0,0,0-.88-9.33,61,61,0,0,0-2-9.07,102.07,102.07,0,0,0-13-26.38c-.07-.1-.2,0-.14.09.83,1.49,8.92,17.91,11.45,25.52a91.29,91.29,0,0,1,2.33,8.88c.39,1.71.75,3.42,1,5.14s.5,3.46.85,5.17A.16.16,0,0,0,295.2,341.81Z" style="fill:#263238"></path><path d="M274.44,289.36s-4.84-19.53-8.61-32.15c-2.1-7-6.78-18.8-10.69-23.26-5.85-6.69-34.58-30.9-40.6-24.06-5.45,6.19,5.53,12.78,5.53,12.78s-11.32-8.32-14.84-.52,11.59,15,11.59,15-11.41-9.67-14.37-1c-2.57,7.54,14,17.71,14,17.71s-10.86-11.47-14.25-4c-3.75,8.25,19.12,26.61,19.12,26.61-5,20.92,4,30.58,11.29,37.52C234.24,315.64,274.44,289.36,274.44,289.36Z" style="fill: rgb(247, 169, 160);"></path><path d="M213.07,234.7c1.17.61,2.32,1.26,3.48,1.88a63.84,63.84,0,0,1,6.63,3.89c2,1.42,4,2.93,6,4.51s4,3.54,6,5.15a.15.15,0,1,1-.19.23,67.49,67.49,0,0,0-6.41-4.48c-2.13-1.42-4.28-2.81-6.42-4.2s-4.09-2.85-6.15-4.27c-1-.71-2.08-1.37-3.14-2a21.71,21.71,0,0,1-3-1.95c-.09-.08,0-.21.11-.18A15.7,15.7,0,0,1,213.07,234.7Z" style="fill:#263238"></path><path d="M217.68,221c2.12.66,10.42,5.56,12.46,6.94a71.26,71.26,0,0,1,11,9.09c.11.12-.05.32-.19.22-4-2.64-7.92-5.35-11.86-8-1.92-1.32-10.86-7.06-11.72-7.77C217.21,221.23,217.45,220.91,217.68,221Z" style="fill:#263238"></path><path d="M208.41,247.48c2,.73,9.73,5.39,11.6,6.74a92.62,92.62,0,0,1,10,9.42c.1.14,0,.34-.18.23-3.55-2.88-7-5.81-10.73-8.51-1.79-1.32-9.25-6.16-10.86-7.57A.19.19,0,0,1,208.41,247.48Z" style="fill:#263238"></path></g><g id="freepik--character-1--inject-18"><path d="M266.1,454.59H167.7c-2.46-26.47-4.81-52.43-6.77-74.07-.09-.91-.17-1.82-.25-2.72-.48-5.28-.93-10.28-1.35-14.92-.08-.94-.17-1.87-.25-2.77-.07-.74-.14-1.45-.2-2.18-1.79-20-2.92-32.69-2.92-32.69h93.58a2.6,2.6,0,0,1,0,.29c.06.48.21,1.58.41,3.23h0c.1.9.23,2,.4,3.22,0,.25.06.52.09.79s0,.25.06.39,0,.3.06.47c0,0,0,0,0,0,.71,5.62,1.75,13.81,3.05,23.88,0,.39.11.79.15,1.19l.15,1.13c0,.19,0,.38.07.58.42,3.34.88,6.87,1.36,10.57.16,1.3.32,2.6.49,3.92.13.95.25,1.9.38,2.87,0,.11,0,.23,0,.36s.07.54.11.81q.45,3.66,1,7.47c0,.4.1.8.16,1.2.13,1.14.29,2.31.44,3.48,1.4,11,2.92,22.8,4.48,35.07l.27,2.09c.41,3.17.81,6.36,1.23,9.59C264.68,443.39,265.38,449,266.1,454.59Z" style="fill:#263238"></path><path d="M182.16,454.59h-1.48c-3.18-28.66-5.9-57.39-8.42-86.12-.06-.6-.1-1.2-.16-1.8v0h0c0-.42-.08-.84-.11-1.25-.16-1.77-.31-3.53-.46-5.31-.06-.67-.12-1.34-.17-2q-.88-10.26-1.73-20.52c0-.24.33-.24.37,0q1,10,2,19.92v.06c0,.18,0,.36.06.54.21,2.24.45,4.46.66,6.71h0c0,.32.07.62.09.94l.33,3.12c2.39,23.85,4.8,47.67,7.41,71.48C181.1,445.09,181.62,449.83,182.16,454.59Z" style="fill:#37474f"></path><path d="M236,325.25l-.09.59,0,.15-.36,2.36-.05.4v0l-.67,4.34L231,358.18l-.81,5.3-.38,2.53L228,377.84l-.1.72L226.8,386,225,397.84l-1.58,10.4h0l-.44,2.8v0l-1.12,7.47h0l-.09.52-.29,2v0l-2.22,14.57-2.88,18.9H156.07c-4.2-23.7-8.33-47-11.89-67.15-.1-.6-.2-1.16-.3-1.73h0c-1.84-10.35-3.51-19.83-5-28.06-.28-1.61-.57-3.17-.84-4.69-.14-.87-.3-1.73-.45-2.56-2.75-15.59-4.45-25.14-4.45-25.14Z" style="fill:#37474f"></path><path d="M249.62,325.16s0,.12-.05.37c-.07.53-.24,1.63-.5,3.22h0c-.09.62-.21,1.32-.34,2.1-.06.32-.11.67-.17,1,0,.1,0,.2-.06.31a.68.68,0,0,1,0,.14c-.07.39-.13.8-.2,1.22-1,5.93-2.58,14.54-4.63,24.43-.34,1.64-.7,3.33-1.07,5-.43,2-.88,4-1.35,6.07-.71,3.1-1.46,6.27-2.26,9.46-.15.62-.29,1.24-.45,1.85-.69,2.72-1.39,5.45-2.15,8.17a272.5,272.5,0,0,1-9,27.76v0a8.43,8.43,0,0,1-.33.83s-1.29.4-3.66,1.3l-1.62.63c-1.05.41-2.24.9-3.57,1.46l-1.12.48-1.94.87c-3.92,1.76-8.69,4.06-14.12,7-.22.11-.45.23-.67.36l-.88.48s0,.22,0,.62c-.18,2.37-.87,11.38-1.84,24.22H104.75c3.64-37.12,7.25-73,9.73-97.51.61-6,1.15-11.32,1.61-15.82a2.45,2.45,0,0,0,0-.27c0-.16,0-.32.06-.47.06-.56.1-1.1.17-1.61.88-8.73,1.39-13.75,1.39-13.75Z" style="fill:#263238"></path><path d="M128.19,339.6c-.15,1.93-.29,3.86-.44,5.78,0,.72-.11,1.46-.17,2.17q-.36,4.93-.74,9.85c-2.19,28.82-4.33,57.63-6.64,86.43l-.88,10.76H118q4.16-48.58,8-97.21c.27-3.4.54-6.82.82-10.23.05-.72.11-1.45.17-2.17l.42-5.36C127.45,339.11,128.22,339.11,128.19,339.6Z" style="fill:#37474f"></path><path d="M231.78,414.71c-11.18,3.85-22,9.32-32.3,15-.4.23-.13.86.3.67,10.88-4.67,22-9.14,32.59-14.41A.71.71,0,0,0,231.78,414.71Z" style="fill:#37474f"></path><path d="M235.24,340.06c0-.38-.69-.46-.69-.06a362.1,362.1,0,0,1-1.82,36.36c-.51,5.6-5,36.57-14.73,34.31-1.63-.37-2.46-2-2.72-4.43-.3-2.95.81-6.56,1.29-9.5,1.08-6.48,2-13,2.5-19.53a177.34,177.34,0,0,0-.39-36.64.32.32,0,0,0-.63,0c0,16.93-.43,33.82-3,50.58-1.21,8.06-5.27,20.18,3.16,21.42,8.58,1.27,14.13-19.05,15.18-24.61C236.35,372.49,236.46,355.75,235.24,340.06Z" style="fill:#37474f"></path><path d="M218.25,411.51a53.29,53.29,0,0,0-2.18,6.42,14.52,14.52,0,0,0-.91,5.27.38.38,0,0,0,.67.15c1.14-1.45,1.62-3.42,2.26-5.14.74-2,1.52-4,2.2-6A1.09,1.09,0,0,0,218.25,411.51Z" style="fill:#37474f"></path><path d="M174.28,350.19a17.37,17.37,0,0,0-.41-4,.21.21,0,0,0-.4,0,16.09,16.09,0,0,0-.45,3.47c-.14,1.33-.31,2.66-.46,4a58.27,58.27,0,0,1-1.42,8.09,28.69,28.69,0,0,1-7.42,13.33,38.5,38.5,0,0,1-12.55,8.27c-5.22,2.21-10.71,3-16.1,4.62a.2.2,0,0,0,.06.39,46.24,46.24,0,0,0,17.44-3.43,37.31,37.31,0,0,0,13.09-8.35,29.12,29.12,0,0,0,7.63-13.72,40.94,40.94,0,0,0,1.05-8.11A38.35,38.35,0,0,0,174.28,350.19Z" style="fill:#37474f"></path><path d="M328.16,287.18a72.64,72.64,0,0,0,.43-13,70.37,70.37,0,0,0-1.84-12.82,53.46,53.46,0,0,0-4.49-12.15c-1-1.93-2.1-3.73-3.11-5.59l-1.44-2.83-1.31-2.88a54.11,54.11,0,0,1-3.62-12.11,45.86,45.86,0,0,1-.61-6.3c-.08-2.11,0-4.27-.15-6.41a100.29,100.29,0,0,0-1.74-12.69,55.4,55.4,0,0,0-1.66-6.19,19.53,19.53,0,0,0-2.87-5.69,19.31,19.31,0,0,1,2.73,5.74,52.8,52.8,0,0,1,1.5,6.2,97.87,97.87,0,0,1,1.44,12.67c.13,2.11,0,4.23,0,6.38a47.84,47.84,0,0,0,.47,6.43,55.08,55.08,0,0,0,3.4,12.42l1.26,3,1.4,2.91c1,1.91,2,3.79,3,5.65A52.29,52.29,0,0,1,325,261.77a67.32,67.32,0,0,1,1.49,12.5,69.46,69.46,0,0,1-.7,12.52Z" style="fill:#455a64"></path><path d="M327,268l1.11-3.19,1.06-3.2,2.13-6.4c.7-2.13,1.44-4.24,2.19-6.36.37-1.06.78-2.1,1.18-3.15l.64-1.56.7-1.53c-.3.47-.61.95-.89,1.44l-.8,1.49c-.49,1-1,2-1.4,3.09-.89,2.07-1.66,4.2-2.37,6.33s-1.38,4.29-2,6.47S327.46,265.83,327,268Z" style="fill:#455a64"></path><path d="M317.92,242.71c.05-1.5.09-3,.17-4.5s.12-3,.23-4.49c.19-3,.36-6,.72-8.94s.69-5.94,1.24-8.88c.11-.74.29-1.46.44-2.2l.23-1.1.28-1.08c.19-.72.33-1.46.56-2.17s.45-1.43.67-2.15a44.1,44.1,0,0,0-2.78,8.58,84.28,84.28,0,0,0-1.43,8.91c-.29,3-.49,6-.55,9S317.68,239.71,317.92,242.71Z" style="fill:#455a64"></path><path d="M313.26,230.43c-1-2.66-2.23-5.26-3.47-7.83s-2.61-5.08-4-7.56a72,72,0,0,0-4.74-7.15,22.61,22.61,0,0,0-6.12-6l.82.69a6.76,6.76,0,0,1,.8.71c.48.52,1,1,1.43,1.56l1.34,1.65,1.24,1.73q2.4,3.51,4.54,7.2c1.44,2.45,2.81,4.94,4.18,7.43S311.92,227.9,313.26,230.43Z" style="fill:#455a64"></path><path d="M335.77,243.48s10.59-12.15,7.21-15.09S335.77,243.48,335.77,243.48Z" style="fill:#455a64"></path><path d="M333.27,247.94s3.4-15.75-1-16.68S333.27,247.94,333.27,247.94Z" style="fill:#455a64"></path><path d="M332.71,251.24s13.86-8.21,11.58-12.06S332.71,251.24,332.71,251.24Z" style="fill:#455a64"></path><path d="M328.78,260.8s2.28-16-2.16-16.58S328.78,260.8,328.78,260.8Z" style="fill:#455a64"></path><path d="M328.62,263.66s15-5.82,13.4-10S328.62,263.66,328.62,263.66Z" style="fill:#455a64"></path><path d="M318.06,234.75s12.69-9.93,9.92-13.45S318.06,234.75,318.06,234.75Z" style="fill:#455a64"></path><path d="M319.18,224.62s11.26-8.81,8.8-11.93S319.18,224.62,319.18,224.62Z" style="fill:#455a64"></path><path d="M311.43,207.86s8.28-11.65,5-13.94S311.43,207.86,311.43,207.86Z" style="fill:#455a64"></path><path d="M318.44,223.84s1.75-14.18-2.19-14.66S318.44,223.84,318.44,223.84Z" style="fill:#455a64"></path><path d="M322.14,207.88s9-10.33,6.15-12.84S322.14,207.88,322.14,207.88Z" style="fill:#455a64"></path><path d="M309.48,197.07s5-12.78,1.46-14.16S309.48,197.07,309.48,197.07Z" style="fill:#455a64"></path><path d="M310,200.77s-4.44-13-8-11.74S310,200.77,310,200.77Z" style="fill:#455a64"></path><path d="M309.37,222.88s-8.85-10.49-11.76-8S309.37,222.88,309.37,222.88Z" style="fill:#455a64"></path><path d="M303.2,211.84s-8.86-10.49-11.76-8S303.2,211.84,303.2,211.84Z" style="fill:#455a64"></path><path d="M308.32,219.72s.66-13.7-3.15-13.88S308.32,219.72,308.32,219.72Z" style="fill:#455a64"></path><path d="M302.73,210.26s-1.09-13.68-4.89-13.37S302.73,210.26,302.73,210.26Z" style="fill:#455a64"></path><path d="M295.69,202.38s-9.37-10-12.15-7.42S295.69,202.38,295.69,202.38Z" style="fill:#455a64"></path><path d="M306.16,189.2s-4.65-11.83-7.93-10.54S306.16,189.2,306.16,189.2Z" style="fill:#455a64"></path><path d="M354.72,292.7a73,73,0,0,1,6.35-11.35,71,71,0,0,1,8.2-10,53.3,53.3,0,0,1,10.12-8.08c1.88-1.12,3.74-2.11,5.56-3.18l2.69-1.67,2.61-1.8a53.91,53.91,0,0,0,9.36-8.49,47.24,47.24,0,0,0,3.78-5.09c1.15-1.76,2.18-3.66,3.44-5.4a96.27,96.27,0,0,1,8.05-10,52.22,52.22,0,0,1,4.61-4.44,19.53,19.53,0,0,1,5.4-3.4,19.33,19.33,0,0,0-5.3,3.51,51.89,51.89,0,0,0-4.49,4.53,98.62,98.62,0,0,0-7.78,10.1c-1.21,1.74-2.16,3.63-3.3,5.46a46.83,46.83,0,0,1-3.72,5.27,55.64,55.64,0,0,1-9.33,8.88l-2.62,1.88-2.7,1.77c-1.82,1.13-3.71,2.2-5.46,3.3a51.63,51.63,0,0,0-9.63,8.07,67.16,67.16,0,0,0-7.74,9.93A70,70,0,0,0,357,293.59Z" style="fill:#455a64"></path><path d="M365.58,276.9l.71-3.31.74-3.29,1.48-6.57c.51-2.19,1-4.38,1.42-6.58.23-1.09.42-2.2.61-3.3l.26-1.67.2-1.67c0,.56,0,1.13,0,1.69l-.08,1.69c-.11,1.13-.24,2.25-.4,3.37-.31,2.23-.75,4.45-1.24,6.65s-1,4.38-1.67,6.54S366.35,274.78,365.58,276.9Z" style="fill:#455a64"></path><path d="M386.47,259.92c.73-1.31,1.47-2.62,2.18-3.94s1.44-2.63,2.12-4c1.39-2.66,2.78-5.31,4-8s2.47-5.45,3.52-8.24c.29-.7.51-1.41.76-2.11l.38-1.06.32-1.07c.21-.72.47-1.43.63-2.16s.36-1.45.55-2.18a45,45,0,0,1-2.06,8.78,86.78,86.78,0,0,1-3.38,8.38q-2,4.06-4.19,8C389.8,254.92,388.22,257.48,386.47,259.92Z" style="fill:#455a64"></path><path d="M396.81,251.81c2.26-1.74,4.62-3.35,7-4.91s4.86-3,7.36-4.38a73.38,73.38,0,0,1,7.76-3.68,22.69,22.69,0,0,1,8.32-2l-1.05.17a6.25,6.25,0,0,0-1,.19c-.68.2-1.37.36-2,.6l-2,.72-1.95.84q-3.87,1.77-7.61,3.81c-2.5,1.36-5,2.78-7.42,4.21S399.25,250.34,396.81,251.81Z" style="fill:#455a64"></path><path d="M370.79,251.35s-2.79-15.87,1.62-16.64S370.79,251.35,370.79,251.35Z" style="fill:#455a64"></path><path d="M370.62,256.46s5.23-15.24,9.46-13.77S370.62,256.46,370.62,256.46Z" style="fill:#455a64"></path><path d="M369.4,259.58s-7.63-14.2-3.68-16.31S369.4,259.58,369.4,259.58Z" style="fill:#455a64"></path><path d="M367.82,269.79s6.3-14.83,10.42-13.07S367.82,269.79,367.82,269.79Z" style="fill:#455a64"></path><path d="M366.48,272.33s-9.86-12.75-6.31-15.48S366.48,272.33,366.48,272.33Z" style="fill:#455a64"></path><path d="M390.46,253s-5.73-15.06-1.54-16.64S390.46,253,390.46,253Z" style="fill:#455a64"></path><path d="M394.74,243.78s-5.09-13.36-1.37-14.77S394.74,243.78,394.74,243.78Z" style="fill:#455a64"></path><path d="M410,233.44s-1.07-14.26,2.89-14.55S410,233.44,410,233.44Z" style="fill:#455a64"></path><path d="M395.77,243.5s5.83-13.05,9.45-11.43S395.77,243.5,395.77,243.5Z" style="fill:#455a64"></path><path d="M400.86,227.92s-2.39-13.51,1.36-14.17S400.86,227.92,400.86,227.92Z" style="fill:#455a64"></path><path d="M417.28,225.21s2.31-13.53,6.07-12.88S417.28,225.21,417.28,225.21Z" style="fill:#455a64"></path><path d="M414.9,228.09s10.52-8.82,13-5.89S414.9,228.09,414.9,228.09Z" style="fill:#455a64"></path><path d="M404,247.36s13-4.41,14.21-.8S404,247.36,404,247.36Z" style="fill:#455a64"></path><path d="M415,241.1s13-4.41,14.21-.79S415,241.1,415,241.1Z" style="fill:#455a64"></path><path d="M406.56,245.2s6.52-12.08,9.87-10.26S406.56,245.2,406.56,245.2Z" style="fill:#455a64"></path><path d="M416.24,240s8-11.15,11.1-8.93S416.24,240,416.24,240Z" style="fill:#455a64"></path><path d="M426.34,236.88s13.21-3.75,14.24-.08S426.34,236.88,426.34,236.88Z" style="fill:#455a64"></path><path d="M424.19,220.18s10.09-7.73,12.23-4.92S424.19,220.18,424.19,220.18Z" style="fill:#455a64"></path><path d="M340.84,272.72c.25-1.56-1.7-2.08-1.95-.52q-6.18,38.24-12.35,76.47c-.25,1.56,1.7,2.08,2,.52Q334.67,311,340.84,272.72Z" style="fill:#455a64"></path><path d="M336.4,296c.3-1.54-1.63-2.16-1.93-.61l-14.85,75.84c-.3,1.54,1.63,2.16,1.93.61Z" style="fill:#455a64"></path><path d="M331,292.56c.3-1.54-1.63-2.16-1.93-.61l-14.85,75.84c-.31,1.54,1.62,2.16,1.93.61Z" style="fill:#455a64"></path><path d="M343.22,296.91c.49-1.47-1.33-2.45-1.83-1l-24.24,72.26c-.49,1.47,1.33,2.45,1.83,1Z" style="fill:#455a64"></path><path d="M345.7,297.07c.44-1.49-1.41-2.39-1.86-.89q-11,36.63-22.09,73.26c-.45,1.49,1.4,2.39,1.85.89Q334.66,333.7,345.7,297.07Z" style="fill:#455a64"></path><path d="M327.32,275.25c.2-1.56-1.77-2-2-.42q-5,38.49-9.89,77c-.2,1.57,1.76,2,2,.43Q322.37,313.73,327.32,275.25Z" style="fill:#455a64"></path><path d="M337.28,285.85c.36-1.52-1.54-2.25-1.9-.72q-8.83,37.49-17.68,75c-.36,1.53,1.55,2.26,1.91.72Z" style="fill:#455a64"></path><path d="M347.36,301.47c.75-1.3-.84-2.76-1.59-1.45q-18.36,32-36.7,64c-.74,1.3.85,2.76,1.6,1.46Z" style="fill:#455a64"></path><path d="M318.79,232.84s37.61-3.86,66.48,22.77l-44.75,60.9s-10.11,1.66-21.63-7.61Z" style="fill:#FFC727"></path><path d="M318.79,232.84s37.61-3.86,66.48,22.77l-44.75,60.9s-10.11,1.66-21.63-7.61Z" style="fill:#fff;opacity:0.7000000000000001"></path><path d="M318.88,301.63a64.56,64.56,0,0,1,6.4-8c2.3-2.52,4.76-4.91,7.3-7.2s5.17-4.47,7.87-6.56l2-1.57,2.09-1.48c1.4-1,2.77-2,4.2-2.95a171.48,171.48,0,0,1,17.69-10.29c3-1.58,6.18-2.9,9.27-4.32s6.33-2.52,9.54-3.66c-2.94,1.75-5.93,3.33-8.89,5l-4.4,2.53c-1.47.84-3,1.64-4.39,2.54s-2.89,1.74-4.35,2.59-2.86,1.78-4.29,2.66-2.9,1.74-4.29,2.69l-4.21,2.79c-1.42.9-2.78,1.89-4.17,2.84l-2.08,1.44-2,1.49c-2.76,1.93-5.4,4-8.07,6.07-1.31,1.06-2.65,2.09-3.93,3.18s-2.6,2.15-3.86,3.28C323.75,296.9,321.26,299.19,318.88,301.63Z" style="fill:#FFC727"></path><path d="M338.73,233.82a67.07,67.07,0,0,1,6.16,8.33,89.51,89.51,0,0,1,5.1,9,73.71,73.71,0,0,1,4,9.56,38.84,38.84,0,0,1,2.21,10.17c-1.41-3.18-2.91-6.21-4.39-9.27l-4.55-9.11c-1.5-3.05-3-6.1-4.45-9.2S340,237.07,338.73,233.82Z" style="fill:#FFC727"></path><path d="M328.37,220.06c-2.84-.72-7.43,1.35-11-7s-2.38-14.69,2.39-17.57c3.26-2-.81-11.84,15.59-14.68,7-1.22,9,5.3,13.2,7.31,3.46,1.66,10.34,1.58,10.54,13.74.17,10.49-4.95,8.81-7.09,12.61s-2.43,7.1-8.05,9.33C332.89,228.2,332.11,221,328.37,220.06Z" style="fill:#FFC727"></path><path d="M328.37,220.06c-2.84-.72-7.43,1.35-11-7s-2.38-14.69,2.39-17.57c3.26-2-.81-11.84,15.59-14.68,7-1.22,9,5.3,13.2,7.31,3.46,1.66,10.34,1.58,10.54,13.74.17,10.49-4.95,8.81-7.09,12.61s-2.43,7.1-8.05,9.33C332.89,228.2,332.11,221,328.37,220.06Z" style="opacity:0.1"></path><path d="M356.51,201.6c.87,2.8,5,5.62-.24,13s-11.27,9.72-16.22,7.17c-3.38-1.74-9.66,6.89-20.67-5.59-4.72-5.35-.21-10.46-.69-15.07-.4-3.82-4.06-9.63,6.19-16.18,8.84-5.64,10.09-.39,14.45-.56s7.32-1.65,12.16,2C361.06,193.49,355.36,197.91,356.51,201.6Z" style="fill:#FFC727"></path><path d="M335.1,215.39s-12.51-3.74-11.13-16.73C324,198.66,316.16,214.68,335.1,215.39Z" style="opacity:0.1"></path><path d="M323.94,195.32s14.22-9.87,26.53,2.3C350.47,197.62,340.34,176.29,323.94,195.32Z" style="opacity:0.1"></path><path d="M337.32,194.53s9.92,3.38,8.41,13.75C345.73,208.28,352.49,195.68,337.32,194.53Z" style="opacity:0.1"></path><path d="M328.63,207.87s-2.82-10.09,6.59-14.71C335.22,193.16,321,194.72,328.63,207.87Z" style="opacity:0.1"></path><path d="M335.25,209.15s-5.58-3.77-2.89-10C332.36,199.2,326,205.88,335.25,209.15Z" style="opacity:0.1"></path><path d="M341.34,206s-4.61,2.15-7.57-2C333.77,204,335.63,210.72,341.34,206Z" style="opacity:0.1"></path><path d="M332.91,202.62s4.65-2.07,7.55,2.11C340.46,204.73,338.69,198,332.91,202.62Z" style="opacity:0.1"></path><path d="M331.94,198.13s6.38-2.16,9.66,3.72C341.6,201.85,340.12,192.79,331.94,198.13Z" style="opacity:0.1"></path><path d="M344.66,203.64s-1.86,6.48-8.57,5.83C336.09,209.47,344.39,213.42,344.66,203.64Z" style="opacity:0.1"></path><path d="M345.09,210.32s-9.29,4.83-15.75-3.42C329.34,206.9,333.78,220.48,345.09,210.32Z" style="opacity:0.1"></path><path d="M349.87,202.38s.88,10.39-9.17,13.16C340.7,215.54,354.88,216.65,349.87,202.38Z" style="opacity:0.1"></path><path d="M381.86,234.31c-2.84-.73-7.42,1.34-10.95-7s-2.38-14.69,2.38-17.57c3.26-2-.81-11.84,15.6-14.68,7-1.22,9,5.3,13.2,7.31,3.45,1.66,10.33,1.58,10.53,13.74.17,10.49-4.95,8.81-7.08,12.61s-2.44,7.1-8.06,9.33C386.39,242.44,385.61,235.26,381.86,234.31Z" style="fill:#FFC727"></path><path d="M381.86,234.31c-2.84-.73-7.42,1.34-10.95-7s-2.38-14.69,2.38-17.57c3.26-2-.81-11.84,15.6-14.68,7-1.22,9,5.3,13.2,7.31,3.45,1.66,10.33,1.58,10.53,13.74.17,10.49-4.95,8.81-7.08,12.61s-2.44,7.1-8.06,9.33C386.39,242.44,385.61,235.26,381.86,234.31Z" style="opacity:0.1"></path><path d="M410,215.84c.87,2.8,5,5.62-.24,13s-11.26,9.72-16.22,7.17c-3.38-1.74-9.65,6.9-20.67-5.59-4.72-5.35-.21-10.46-.69-15.07-.39-3.81-4.06-9.63,6.19-16.17,8.84-5.65,10.09-.4,14.45-.57s7.33-1.65,12.17,2C414.55,207.73,408.85,212.15,410,215.84Z" style="fill:#FFC727"></path><path d="M388.59,229.63s-12.51-3.74-11.13-16.73C377.46,212.9,369.65,228.92,388.59,229.63Z" style="opacity:0.1"></path><path d="M377.43,209.56s14.22-9.87,26.53,2.3C404,211.86,393.84,190.53,377.43,209.56Z" style="opacity:0.1"></path><path d="M390.82,208.77s9.91,3.38,8.41,13.75C399.23,222.52,406,209.92,390.82,208.77Z" style="opacity:0.1"></path><path d="M382.13,222.11s-2.82-10.09,6.58-14.71C388.71,207.4,374.5,209,382.13,222.11Z" style="opacity:0.1"></path><path d="M388.75,223.39s-5.58-3.77-2.9-9.95C385.85,213.44,379.54,220.12,388.75,223.39Z" style="opacity:0.1"></path><path d="M394.84,220.27s-4.62,2.15-7.58-2C387.26,218.27,389.13,225,394.84,220.27Z" style="opacity:0.1"></path><path d="M386.4,216.87s4.65-2.08,7.55,2.1C394,219,392.18,212.26,386.4,216.87Z" style="opacity:0.1"></path><path d="M385.43,212.37s6.38-2.15,9.67,3.72C395.1,216.09,393.61,207,385.43,212.37Z" style="opacity:0.1"></path><path d="M398.16,217.88s-1.87,6.48-8.57,5.83C389.59,223.71,397.88,227.66,398.16,217.88Z" style="opacity:0.1"></path><path d="M398.59,224.56s-9.3,4.83-15.76-3.42C382.83,221.14,387.27,234.72,398.59,224.56Z" style="opacity:0.1"></path><path d="M403.36,216.62s.88,10.39-9.16,13.16C394.2,229.78,408.37,230.9,403.36,216.62Z" style="opacity:0.1"></path><path d="M344,224.7c1.05,2.53,5.18,4.8.89,12.13s-9.66,10-14.49,8.08c-3.3-1.34-8.41,7.25-19.74-3.44-4.86-4.58-1.09-9.73-1.93-14-.7-3.52-4.61-8.63,4.38-15.6,7.75-6,9.37-1.24,13.41-1.77s6.68-2.16,11.5.79C347.56,216.75,342.63,221.35,344,224.7Z" style="fill:#FFC727"></path><path d="M344,224.7c1.05,2.53,5.18,4.8.89,12.13s-9.66,10-14.49,8.08c-3.3-1.34-8.41,7.25-19.74-3.44-4.86-4.58-1.09-9.73-1.93-14-.7-3.52-4.61-8.63,4.38-15.6,7.75-6,9.37-1.24,13.41-1.77s6.68-2.16,11.5.79C347.56,216.75,342.63,221.35,344,224.7Z" style="opacity:0.2"></path><path d="M314.4,214c1.61-2.22,1.38-6.92,9.87-7.12s13.6,3,14.47,8.12c.6,3.51,10.58,3.36,7.41,18.61-1.35,6.54-7.71,6-10.89,9-2.64,2.44-4.93,8.45-15.58,4.44-9.19-3.45-6-7.33-8.54-10.49s-5.34-4.56-5.35-10.22C305.77,215.13,312.28,216.92,314.4,214Z" style="fill:#FFC727"></path><path d="M314.4,214c1.61-2.22,1.38-6.92,9.87-7.12s13.6,3,14.47,8.12c.6,3.51,10.58,3.36,7.41,18.61-1.35,6.54-7.71,6-10.89,9-2.64,2.44-4.93,8.45-15.58,4.44-9.19-3.45-6-7.33-8.54-10.49s-5.34-4.56-5.35-10.22C305.77,215.13,312.28,216.92,314.4,214Z" style="opacity:0.1"></path><path d="M336.73,222.28S341,233.74,330.46,240C330.46,240,346.83,236.86,336.73,222.28Z" style="opacity:0.1"></path><path d="M328,241.9s-15.37-5.11-13.16-21.16C314.81,220.74,304.52,240.29,328,241.9Z" style="opacity:0.1"></path><path d="M319.87,232.32s-3-9.32,5.57-14C325.44,218.31,312.22,220.32,319.87,232.32Z" style="opacity:0.1"></path><path d="M334.74,231.34s-6,7.77-14.72,3.33C320,234.67,329.16,244.43,334.74,231.34Z" style="opacity:0.1"></path><path d="M332,225.66s.3,6.3-5.83,7.76C326.15,233.42,334.69,234.4,332,225.66Z" style="opacity:0.1"></path><path d="M326.22,222.86s4.2,2.25,2.76,6.79C329,229.65,332.94,224.5,326.22,222.86Z" style="opacity:0.1"></path><path d="M328.41,231.08s-4.17-2.31-2.66-6.83C325.75,224.25,321.71,229.34,328.41,231.08Z" style="opacity:0.1"></path><path d="M325.59,234.33s-5.2-3.56-2.64-9.33C323,225,317,231.2,325.59,234.33Z" style="opacity:0.1"></path><path d="M322.57,221.71s5.9-2.24,9.17,3.15C331.74,224.86,330,216.43,322.57,221.71Z" style="opacity:0.1"></path><path d="M327.33,217.64s8.83,4.25,6.28,13.72C333.61,231.36,341.29,220.41,327.33,217.64Z" style="opacity:0.1"></path><path d="M318.71,218.52s7.28-6.49,15-.52C333.7,218,326.58,206.76,318.71,218.52Z" style="opacity:0.1"></path><path d="M401.9,246.39c1.05,2.53,5.18,4.8.89,12.14s-9.66,10-14.49,8.07c-3.3-1.34-8.41,7.25-19.74-3.44-4.85-4.58-1.09-9.73-1.93-14-.7-3.52-4.61-8.63,4.38-15.6,7.75-6,9.37-1.24,13.41-1.77s6.68-2.16,11.5.79C405.45,238.44,400.52,243.05,401.9,246.39Z" style="fill:#FFC727"></path><path d="M401.9,246.39c1.05,2.53,5.18,4.8.89,12.14s-9.66,10-14.49,8.07c-3.3-1.34-8.41,7.25-19.74-3.44-4.85-4.58-1.09-9.73-1.93-14-.7-3.52-4.61-8.63,4.38-15.6,7.75-6,9.37-1.24,13.41-1.77s6.68-2.16,11.5.79C405.45,238.44,400.52,243.05,401.9,246.39Z" style="opacity:0.2"></path><path d="M372.29,235.68c1.61-2.22,1.38-6.92,9.87-7.12s13.6,3,14.47,8.12c.6,3.51,10.58,3.36,7.41,18.61-1.35,6.54-7.71,6-10.89,9-2.63,2.44-4.93,8.45-15.58,4.45-9.19-3.46-6-7.33-8.54-10.5s-5.34-4.56-5.35-10.22C363.66,236.82,370.17,238.61,372.29,235.68Z" style="fill:#FFC727"></path><path d="M372.29,235.68c1.61-2.22,1.38-6.92,9.87-7.12s13.6,3,14.47,8.12c.6,3.51,10.58,3.36,7.41,18.61-1.35,6.54-7.71,6-10.89,9-2.63,2.44-4.93,8.45-15.58,4.45-9.19-3.46-6-7.33-8.54-10.5s-5.34-4.56-5.35-10.22C363.66,236.82,370.17,238.61,372.29,235.68Z" style="opacity:0.1"></path><path d="M394.62,244s4.23,11.47-6.27,17.72C388.35,261.69,404.72,258.55,394.62,244Z" style="opacity:0.1"></path><path d="M385.86,263.59s-15.37-5.11-13.16-21.16C372.7,242.43,362.41,262,385.86,263.59Z" style="opacity:0.1"></path><path d="M377.76,254s-3-9.32,5.57-14C383.33,240,370.11,242,377.76,254Z" style="opacity:0.1"></path><path d="M392.63,253s-6,7.77-14.71,3.33C377.92,256.36,387.05,266.12,392.63,253Z" style="opacity:0.1"></path><path d="M389.87,247.36s.31,6.29-5.83,7.75C384,255.11,392.58,256.09,389.87,247.36Z" style="opacity:0.1"></path><path d="M384.11,244.55s4.2,2.25,2.76,6.79C386.87,251.34,390.83,246.19,384.11,244.55Z" style="opacity:0.1"></path><path d="M386.3,252.77s-4.17-2.31-2.66-6.83C383.64,245.94,379.61,251,386.3,252.77Z" style="opacity:0.1"></path><path d="M383.48,256s-5.2-3.57-2.64-9.33C380.84,246.7,374.88,252.9,383.48,256Z" style="opacity:0.1"></path><path d="M380.46,243.4s5.9-2.23,9.17,3.15C389.63,246.55,387.93,238.12,380.46,243.4Z" style="opacity:0.1"></path><path d="M385.22,239.33s8.84,4.25,6.28,13.72C391.5,253.05,399.18,242.1,385.22,239.33Z" style="opacity:0.1"></path><path d="M376.6,240.22s7.28-6.49,15-.53C391.59,239.69,384.47,228.45,376.6,240.22Z" style="opacity:0.1"></path><path d="M384.11,193.79c1.05,2.53,5.17,4.8.89,12.14s-9.66,10-14.49,8.07c-3.3-1.33-8.41,7.25-19.74-3.43-4.86-4.59-1.09-9.73-1.93-14-.7-3.51-4.62-8.62,4.38-15.6,7.75-6,9.36-1.23,13.41-1.76s6.68-2.17,11.5.79C387.66,185.84,382.72,190.45,384.11,193.79Z" style="fill:#FFC727"></path><path d="M384.11,193.79c1.05,2.53,5.17,4.8.89,12.14s-9.66,10-14.49,8.07c-3.3-1.33-8.41,7.25-19.74-3.43-4.86-4.59-1.09-9.73-1.93-14-.7-3.51-4.62-8.62,4.38-15.6,7.75-6,9.36-1.23,13.41-1.76s6.68-2.17,11.5.79C387.66,185.84,382.72,190.45,384.11,193.79Z" style="opacity:0.2"></path><path d="M354.5,183.09c1.6-2.22,1.38-6.93,9.87-7.12s13.6,3,14.47,8.11c.59,3.51,10.58,3.37,7.41,18.61-1.36,6.55-7.71,6-10.9,9-2.63,2.43-4.92,8.45-15.57,4.44-9.19-3.45-6-7.33-8.54-10.5s-5.34-4.56-5.35-10.21C345.87,184.23,352.38,186,354.5,183.09Z" style="fill:#FFC727"></path><path d="M354.5,183.09c1.6-2.22,1.38-6.93,9.87-7.12s13.6,3,14.47,8.11c.59,3.51,10.58,3.37,7.41,18.61-1.36,6.55-7.71,6-10.9,9-2.63,2.43-4.92,8.45-15.57,4.44-9.19-3.45-6-7.33-8.54-10.5s-5.34-4.56-5.35-10.21C345.87,184.23,352.38,186,354.5,183.09Z" style="opacity:0.1"></path><path d="M376.83,191.38s4.22,11.46-6.27,17.72C370.56,209.1,386.93,206,376.83,191.38Z" style="opacity:0.1"></path><path d="M368.07,211s-15.37-5.11-13.16-21.15C354.91,189.84,344.62,209.39,368.07,211Z" style="opacity:0.1"></path><path d="M360,201.42s-3-9.32,5.57-14C365.54,187.4,352.32,189.42,360,201.42Z" style="opacity:0.1"></path><path d="M374.83,200.43s-6,7.78-14.71,3.33C360.12,203.76,369.26,213.52,374.83,200.43Z" style="opacity:0.1"></path><path d="M372.08,194.76s.3,6.3-5.83,7.75C366.25,202.51,374.79,203.49,372.08,194.76Z" style="opacity:0.1"></path><path d="M366.32,192s4.2,2.26,2.76,6.8C369.08,198.75,373,193.6,366.32,192Z" style="opacity:0.1"></path><path d="M368.5,200.18s-4.16-2.32-2.65-6.83C365.85,193.35,361.81,198.44,368.5,200.18Z" style="opacity:0.1"></path><path d="M365.69,203.43s-5.2-3.57-2.64-9.33C363.05,194.1,357.09,200.3,365.69,203.43Z" style="opacity:0.1"></path><path d="M362.67,190.81s5.89-2.24,9.17,3.14C371.84,194,370.14,185.53,362.67,190.81Z" style="opacity:0.1"></path><path d="M367.43,186.74s8.83,4.25,6.28,13.71C373.71,200.45,381.39,189.51,367.43,186.74Z" style="opacity:0.1"></path><path d="M358.81,187.62s7.28-6.49,15-.52C373.8,187.1,366.68,175.86,358.81,187.62Z" style="opacity:0.1"></path><path d="M349.42,250.75c-3.35-.86-8.78,1.59-13-8.31s-2.81-17.38,2.83-20.79c3.85-2.33-1-14,18.44-17.36,8.33-1.44,10.68,6.27,15.62,8.65,4.09,2,12.23,1.87,12.47,16.26.2,12.4-5.86,10.42-8.39,14.91s-2.88,8.4-9.52,11C354.78,260.37,353.86,251.88,349.42,250.75Z" style="fill:#FFC727"></path><path d="M349.42,250.75c-3.35-.86-8.78,1.59-13-8.31s-2.81-17.38,2.83-20.79c3.85-2.33-1-14,18.44-17.36,8.33-1.44,10.68,6.27,15.62,8.65,4.09,2,12.23,1.87,12.47,16.26.2,12.4-5.86,10.42-8.39,14.91s-2.88,8.4-9.52,11C354.78,260.37,353.86,251.88,349.42,250.75Z" style="opacity:0.1"></path><path d="M382.72,228.9c1,3.31,6,6.65-.29,15.39s-13.33,11.51-19.19,8.49c-4-2.06-11.42,8.15-24.45-6.62-5.59-6.33-.25-12.38-.81-17.83-.47-4.51-4.81-11.4,7.32-19.14,10.46-6.67,11.94-.47,17.09-.67s8.67-2,14.4,2.33C388.11,219.3,381.36,224.54,382.72,228.9Z" style="fill:#FFC727"></path><path d="M357.39,245.21s-14.81-4.42-13.18-19.79C344.21,225.42,335,244.37,357.39,245.21Z" style="opacity:0.1"></path><path d="M344.19,221.47s16.82-11.68,31.38,2.72C375.57,224.19,363.59,199,344.19,221.47Z" style="opacity:0.1"></path><path d="M360,220.53s11.73,4,10,16.27C370,236.8,378,221.9,360,220.53Z" style="opacity:0.1"></path><path d="M349.74,236.32s-3.34-11.94,7.79-17.41C357.53,218.91,340.72,220.75,349.74,236.32Z" style="opacity:0.1"></path><path d="M357.57,237.83s-6.6-4.46-3.43-11.77C354.14,226.06,346.67,234,357.57,237.83Z" style="opacity:0.1"></path><path d="M364.77,234.14s-5.46,2.54-9-2.36C355.81,231.78,358,239.69,364.77,234.14Z" style="opacity:0.1"></path><path d="M354.8,230.11s5.5-2.46,8.93,2.5C363.73,232.61,361.63,224.66,354.8,230.11Z" style="opacity:0.1"></path><path d="M353.64,224.79s7.55-2.55,11.45,4.41C365.09,229.2,363.33,218.47,353.64,224.79Z" style="opacity:0.1"></path><path d="M368.7,231.32s-2.2,7.66-10.14,6.89C358.56,238.21,368.38,242.88,368.7,231.32Z" style="opacity:0.1"></path><path d="M369.21,239.22s-11,5.71-18.64-4.05C350.57,235.17,355.83,251.24,369.21,239.22Z" style="opacity:0.1"></path><path d="M374.86,229.82s1.05,12.29-10.84,15.57C364,245.39,380.79,246.71,374.86,229.82Z" style="opacity:0.1"></path><path d="M255.71,352.8s-145.79,2.08-146.54,1.12c-2-2.62,38.92-150.9,73.7-177,7.48-5.63,31.62-11.84,43.64,3.94C238.85,197,257.8,350.62,255.71,352.8Z" style="fill:#455a64"></path><path d="M195.49,204.07c5.92,12,32.77,97.55,30.43,105.9-3.65,13.06-18,45.71-44,27.36-18.06-12.71-15.18-89.47-11-123.26C173.39,193.12,184.92,182.66,195.49,204.07Z" style="fill: rgb(255, 196, 192);"></path><path d="M283.29,291c7.29,2,24.13,57.13,13.23,59.28-51.24,10.1-102.46-5.21-111.16-10.78-11.41-7.29-10.75-24.2-5-30.92C188.75,298.87,276.07,289.1,283.29,291Z" style="fill: rgb(255, 196, 192);"></path><path d="M364.29,289.56c2.59,6-2.56,10.46-2.56,10.46a14,14,0,0,1,5.48,7.77c1.26,5.63-7,10.07-7,10.07a17.26,17.26,0,0,1,4.48,9.12c.67,5.5-7,11.18-7,11.18a15.15,15.15,0,0,1-1.11,10.5c-4.67,8.52-19.49,9.36-28.9,10s-36.7-6.39-42-7.21l-4.57-60.36s41.4-14.84,52.57-14C343,277.77,361.38,282.8,364.29,289.56Z" style="fill: rgb(255, 196, 192);"></path><path d="M361.24,299.08c-9.83-3.14-20.05-3.21-30.25-3.85a.18.18,0,0,0,0,.35c10.15.52,20.06,3.06,30.17,4A.25.25,0,0,0,361.24,299.08Z" style="fill:#263238"></path><path d="M360,317.09a26.6,26.6,0,0,0-7-.58c-2.49,0-5,0-7.48,0-5,.1-10,.31-15,.67-.23,0-.26.36,0,.36,5-.09,9.94-.11,14.92,0,2.48.06,5,.15,7.46.24a32.48,32.48,0,0,0,7,0A.35.35,0,0,0,360,317.09Z" style="fill:#263238"></path><path d="M357.45,338.16c-1.93-.64-4.34-.27-6.34-.19q-3.41.13-6.82.24c-4.54.13-9.09.26-13.64.24-.22,0-.24.35,0,.35,4.63.05,9.24.16,13.87.17q3.39,0,6.8,0c1.93,0,4.35.18,6.17-.57A.12.12,0,0,0,357.45,338.16Z" style="fill:#263238"></path><path d="M277.07,289.23l8.18,68.58s-92.67-1.2-107.09-22-14.57-84.89-9.46-119.36,23-30.31,30.82-4.64,26.89,81.05,26.89,81.05Z" style="fill:#455a64"></path><path d="M268.18,351.73c0-25.79-3.93-52.89-4.27-57.66,0-.22-.38-.17-.35.05.58,4.67,1.7,36.13,4.24,57.67C267.83,352,268.18,352,268.18,351.73Z" style="fill:#263238"></path><path d="M267.39,356.8c-46.3-5.55-73.11-8.16-84.64-16.67-8.75-6.46-12.78-33-14.23-43.36s-2.32-21-2.82-31.52-1-21.14-1.22-31.72c0-1.3,0-2.6-.07-3.9a.16.16,0,0,0-.32,0c0,7.42-.18,14.85-.19,22.28-.82-4.21-1.62-8.42-2.26-12.66,0-.18-.3-.12-.28.06a120.61,120.61,0,0,0,2.54,14.95c0,2.56,0,5.13.11,7.7a320,320,0,0,0,2.43,32.14c1.36,10.58,2.53,33.47,13.18,45.43,12.83,14.42,66.35,17,87.76,17.47A.1.1,0,0,0,267.39,356.8Z" style="fill:#263238"></path><path d="M277.07,289.23q-14,1.49-28,2.7c-4.67.39-9.34.81-14,1.11-2.34.14-4.68.3-7,.35h-.9l-.47,0a2.21,2.21,0,0,1-.29-.05.63.63,0,0,1-.23-.09.79.79,0,0,1-.16-.14,7.11,7.11,0,0,1-.94-1.66c-.49-1.09-.92-2.18-1.34-3.28-1.68-4.39-3.17-8.84-4.62-13.3s-2.88-8.93-4.29-13.4L210.69,248l-3.94-13.5c3,8.87,5.88,17.8,8.83,26.7s5.81,17.82,9,26.61c.41,1.09.83,2.18,1.3,3.24a7.48,7.48,0,0,0,.75,1.4s0,0,0,0,0,0,0,0l.14,0,.41,0H228c2.32,0,4.66-.17,7-.31l14-.92Z" style="fill:#263238"></path><path d="M210.55,237.8a19.43,19.43,0,0,1,.77,2.88,22.75,22.75,0,0,1,.38,3,15.57,15.57,0,0,1-.7,5.91,26.88,26.88,0,0,0,.25-2.95c0-1,0-2-.05-2.94C211.09,241.72,210.84,239.77,210.55,237.8Z" style="fill:#263238"></path><path d="M217.64,212s-31.49-19.87-48.23-15.67l-11.58,15.77s-4.37,2.55-6.46-.11c-5.17-6.6-9.71-24.25,3.12-39.1,11.76-13.59,29.79-17.24,50-16.31,19.44.9,33,23.51,31.49,30.47C233.17,200.26,217.64,212,217.64,212Z" style="fill:#455a64"></path><path d="M218.18,205.93s12.89-10.42,13.14-19.83S216.84,162.82,204.59,162c-19-1.35-30.86,2.41-38.82,14.1S218.18,205.93,218.18,205.93Z" style="opacity:0.1"></path><path d="M218.27,205.91S189.83,175.07,163,177.17l6.39,19.11S185,193,217.64,212Z" style="fill:#455a64"></path><path d="M162.47,198.14c4.64-1.61,9.6-1.57,14.38-1.12a63.15,63.15,0,0,1,14.09,3.22,110.8,110.8,0,0,1,13.39,5.56l6.43,3.4,6.28,3.7.7.41.59-.48c4.35-3.55,14-12.89,17.07-23.32-8.19,14.41-16.28,19.9-18.45,21.56l1.29-.06-6.32-3.86c-2.16-1.2-4.35-2.35-6.54-3.49s-4.49-2.08-6.78-3-4.62-1.78-7-2.42A57.82,57.82,0,0,0,177,195.66c-1.24-.08-2.49,0-3.72,0s-2.48.18-3.7.39A21.59,21.59,0,0,0,162.47,198.14Z" style="fill:#263238"></path><path d="M157.83,212.05a79.38,79.38,0,0,0,11.58-15.77,71.3,71.3,0,0,0-6.27,7.53A72.32,72.32,0,0,0,157.83,212.05Z" style="fill:#263238"></path><path d="M205.5,199.9a146.75,146.75,0,0,0,.53,25.34c.59,5.88,5.4,26.63,11.82,25.08s-5.84-13.83-9-24.69c-3.26-11-1.23-19.34-1.64-26Z" style="fill:#263238"></path><path d="M229.15,195.64a134,134,0,0,1,7.56,21.72c1.35,5.18,3.82,24.33-2.13,25s.59-13.6-.11-23.84c-.71-10.4-5.06-16.83-6.83-22.65Z" style="fill:#263238"></path><path d="M218.76,201.85c-9.3.87-22.83-15-27.37-27-.31-.82,2-8.71,4.33-18.43,1.4-5.9,2.81-12.51,3.67-18.63.17-1.26,37.09,14.69,37.09,14.69s-5.57,12.31-7,23a13.8,13.8,0,0,0-.08,2.55c0,.12,0,.26,0,.42C229.51,183.27,227.74,201,218.76,201.85Z" style="fill: rgb(255, 196, 192);"></path><path d="M201.72,138.23c.34,10.6,3.28,36.5,23.7,39.83a23.9,23.9,0,0,0,4,.34,1.58,1.58,0,0,0,0-.43,15.65,15.65,0,0,1,.08-2.54c1.43-10.7,7-23,7-23S209.84,140.92,201.72,138.23Z" style="fill:#263238"></path><path d="M190.2,94.82c-3.17,14.13,7.15,53.46,17.65,61.61,15.21,11.82,38.61,11.28,48.27-6.66,9.36-17.4-5-68.42-16.57-75.67C222.49,63.42,194.88,74,190.2,94.82Z" style="fill: rgb(255, 196, 192);"></path><path d="M222.59,111.36a34.31,34.31,0,0,1,3-2.08c1.15-.78,2-1.53,3.44-1.54a1.86,1.86,0,0,1,1.66,1.56c.19,1.77-1,3.08-2.33,4.08a6.78,6.78,0,0,1-4.68,1.47A2,2,0,0,1,222.59,111.36Z" style="fill:#263238"></path><path d="M252.13,104.53a35.39,35.39,0,0,0-3.49-1c-1.35-.36-2.39-.78-3.76-.31a1.87,1.87,0,0,0-1,2c.42,1.72,2,2.57,3.56,3.07a6.79,6.79,0,0,0,4.9-.17A2,2,0,0,0,252.13,104.53Z" style="fill:#263238"></path><path d="M233.08,142.33c.77.48,1.6,1.21,2.59,1.08a7.23,7.23,0,0,0,2.73-1.29.1.1,0,0,1,.15.11,3.7,3.7,0,0,1-3.09,2.19,2.9,2.9,0,0,1-2.61-1.92C232.77,142.36,233,142.26,233.08,142.33Z" style="fill:#263238"></path><path d="M234.16,133.7a9.35,9.35,0,0,0,7,2.75,12.09,12.09,0,0,0,3.31-.56,2.74,2.74,0,0,0,.61-.21,5.1,5.1,0,0,0,.57-.22.68.68,0,0,0,.41-.71v0a1.2,1.2,0,0,0-.08-.27v0l0-.23c-.39-2.08-1.27-5.17-1.27-5.17.84.22,5.05,1.12,4.76.05-2.46-8.8-5.19-18.59-9.49-26.82a.26.26,0,0,0-.48.17c2,8.55,5.55,16.69,7.72,25.25-1.33-.21-3.51-.64-4.59-.38-.27.15,1.8,5.94,1.9,6.89a.45.45,0,0,1,0,.1c-3.37,1.19-6.21.71-10.07-.89C234.13,133.3,234,133.53,234.16,133.7Z" style="fill:#263238"></path><path d="M246.82,114.68c0-.1.23.07.25.17.58,2.54,1.66,5.34,4.15,5.58.07,0,.1.14,0,.15C248.36,120.91,247,117.17,246.82,114.68Z" style="fill:#263238"></path><path d="M247.46,117.43a4,4,0,0,0,1.33,1.62,2.88,2.88,0,0,0,2.26.35,2.57,2.57,0,0,0,1.69-1.57,4.62,4.62,0,0,0,.23-2.06,8.24,8.24,0,0,0-.25-1.22,5.62,5.62,0,0,0-1.2-2.28,9.23,9.23,0,0,1,.4,1.83,10.85,10.85,0,0,1,.07,1.7c-.05,1.15-.43,2.21-1.29,2.39s-1.75-.28-2.39-1.25a18.46,18.46,0,0,1-1.61-3.24A8.16,8.16,0,0,0,247.46,117.43Z" style="fill:#263238"></path><path d="M231.17,118c0-.09-.15.18-.12.28.89,2.44,1.5,5.38-.46,6.93-.06,0,0,.17.07.13C233.25,124.1,232.41,120.2,231.17,118Z" style="fill:#263238"></path><path d="M232.12,120.69a3.91,3.91,0,0,1-.24,2.08,2.87,2.87,0,0,1-1.7,1.52,2.59,2.59,0,0,1-2.28-.4,4.5,4.5,0,0,1-1.3-1.61,8.74,8.74,0,0,1-.46-1.16,5.49,5.49,0,0,1-.22-2.57,8.6,8.6,0,0,0,.65,1.76,11.11,11.11,0,0,0,.86,1.47c.67.94,1.56,1.62,2.38,1.3s1.32-1.18,1.33-2.35a17.45,17.45,0,0,0-.4-3.58A8.12,8.12,0,0,1,232.12,120.69Z" style="fill:#263238"></path><path d="M207.06,117.9c1.57-7.75-4.27-19.64-1-23.45,7.1-8.24,25.31,3.49,36.6,2.12,10.94-1.34,13.7-8.83,10.59-17.46s-11.41-13.62-23.92-13.88C216.4,65,205.48,71.56,199.71,76.4c0,0,2.19-4.79,1-6s-6,3.7-7.42,5.72a16.54,16.54,0,0,0-2,5.62,17.72,17.72,0,0,0-5.06.12c-2.77.43-6,3-6.11,3.73s3.93.68,6.74.46c0,0-4.32,7.58-3.45,13.48s13.66,32.8,15.91,32.82C202.19,132.35,206.43,121.05,207.06,117.9Z" style="fill:#263238"></path><path d="M187.83,85.17c.09-.07.24,0,.15.14a18.88,18.88,0,0,0-4.84,9.12,23.48,23.48,0,0,0,1.44,12.2c2.72,7.54,7.42,14.1,11.63,20.85.13.19-.2.41-.34.22-4.92-6.86-10-14.34-12.56-22.46C181.13,98.33,181.73,90,187.83,85.17Z" style="fill:#263238"></path><path d="M205.27,91.64a26.94,26.94,0,0,1,10-.62c3.19.38,6.08,2,9,3.12,6.65,2.58,13.8,4.32,20.92,3a.08.08,0,0,1,0,.15c-6.46,1.66-13.13.53-19.33-1.63-3.12-1.09-6.17-2.83-9.4-3.53-3.69-.8-7.47-.26-11.16.13A.29.29,0,0,1,205.27,91.64Z" style="fill:#263238"></path><path d="M206.05,72.43A52.29,52.29,0,0,1,219.49,66a41.22,41.22,0,0,1,14.08-2.31c8.27.29,16.38,4.5,19.35,12.57a17.85,17.85,0,0,1,0,12.85.23.23,0,0,1-.43-.16c2.4-7.71,0-16.38-6.9-21-7.38-4.92-16.77-4.17-24.89-1.78a75.09,75.09,0,0,0-14.57,6.27S206,72.45,206.05,72.43Z" style="fill:#263238"></path><path d="M205.26,127.79s-10.24-12-15.78-8.24,3,21.79,10.14,23.68a7,7,0,0,0,9-4.65Z" style="fill: rgb(255, 196, 192);"></path><path d="M192.07,124.65a.1.1,0,0,0,0,.19c5,1.49,8,5.7,10.17,10.16-1.6-1.65-3.64-2.43-5.86-.5-.12.1,0,.28.15.24a4.32,4.32,0,0,1,4.87,1,20.4,20.4,0,0,1,2.63,3.6c.27.41,1,.1.81-.38a1.17,1.17,0,0,1,0-.11C204.3,132.76,198.71,124.64,192.07,124.65Z" style="fill:#263238"></path></g><g id="freepik--Plant--inject-18"><path d="M87.58,347a90.67,90.67,0,0,1,2.14-15c1.06-4.46,2.56-9,5.37-12.69,2.57-3.36,6.25-6,10.53-6.56,4.13-.51,8,1.33,11.09,3.93,3.82,3.22,6.75,7.48,9.5,11.61a142.69,142.69,0,0,1,8.2,14.37c.09.16-.16.3-.24.13a89.9,89.9,0,0,0-7.34-12,76.12,76.12,0,0,0-8.45-10.24c-2.83-2.76-6.43-5.34-10.54-5.48s-7.85,2.17-10.3,5.31c-2.75,3.52-4.15,7.91-5.2,12.19a91,91,0,0,0-2.11,14.33c-.81,9.9-1,19.87-1.25,29.8-.13,5.63-.2,11.25-.26,16.87q0,4.27-.07,8.55a52.64,52.64,0,0,1-.32,8.24c-.1.55-1,.5-1.1,0a48.31,48.31,0,0,1-.37-7.8c0-2.7-.08-5.4-.1-8.11q-.08-7.87-.06-15.75C86.73,368.12,86.86,357.54,87.58,347Z" style="fill:#263238"></path><path d="M101.74,339.56c.52-2.81,1.47-6.46,3.06-8.63,2.87-3.9,6-2.2,3.11,2.12a25.74,25.74,0,0,0-4,10.65s4.82,6.89,10.64,10.28c-.25-2.65-1-6.72-.48-10.65,1.12-8.51,6.27-8,5-1.28-1,5.43-1.44,11.18-1.16,13.67a28.62,28.62,0,0,0,6.22,3c-.34-1-.69-2.17-1.08-3.6-2.07-7.63,3-10,3.18-5.72a59.44,59.44,0,0,0,2,10.82c2.79.94,5.1,1.58,6.52,2.08a23.74,23.74,0,0,1,9.54,6.52,29.88,29.88,0,0,0,6.5-8.42c-1.78-1.53-4.59-3.8-8.49-6.55-7.31-5.17-4.77-11.69,1-7.63,4.19,2.92,7.43,8.34,8.91,11.12a45.38,45.38,0,0,0,3.31-15.22c-5.74-5.4-20-12.91-15.67-12.91,3.86,0,12.48,5.65,15.64,7.83a39.24,39.24,0,0,0-.48-4.43c-5.41-3.54-23-9.06-20.19-10.65,3.07-1.74,15.34,3.94,19.05,5.74a22.2,22.2,0,0,0-3.25-6.73c-7.48-10-21-13.46-26.84-11.55-4.16,1.35-3,11.91-3.84,11.55C103.19,314.29,95.59,319.05,101.74,339.56Zm41-1.16c1.19-1.44,6.67,2.78,5.09,5.08S141.19,340.23,142.72,338.4Zm-28.67-9c1.44.92-.69,6.26-2.92,4.64C109.24,332.65,112.6,328.47,114.05,329.39Z" style="fill:#FFC727"></path><path d="M116.24,331c.75-1.49,1.54-3,2.4-4.41a25.71,25.71,0,0,1,2.76-4l-.71-.88c-.1-.12.07-.28.17-.16.28.32.55.64.82,1a.22.22,0,0,1,.12.13c1,1.24,2,2.52,2.93,3.82a42.89,42.89,0,0,1,4.86,1.41c1.64.54,3.27,1.11,4.86,1.79.17.07.08.34-.08.27-1.58-.7-3.18-1.38-4.82-1.93s-3.12-.92-4.69-1.37c.51.72,1,1.45,1.49,2.19a56.67,56.67,0,0,1,8.59,3.5c2.9,1.38,5.69,3,8.47,4.59.16.09,0,.33-.15.24a94.68,94.68,0,0,0-8.43-4.37c-2.69-1.25-5.47-2.29-8.18-3.49,6.83,10.66,10.92,22.95,16.4,34.34.07.16-.18.3-.25.13-1.67-4-3.6-7.88-5.42-11.81-1.63-3.52-3.23-7.07-4.86-10.59-.48-1-1-2.06-1.48-3.09.3,5.69.18,11.48,1.11,17.1a.14.14,0,1,1-.27,0c-.4-6.09-1.47-12.07-1.43-18.19,0,0,0-.05,0-.08-1.16-2.32-2.4-4.62-3.73-6.85-2.26,5.33-4.64,10.73-5.7,16.45,0,.18-.31.1-.27-.08,1.54-5.73,3-11.47,5.73-16.77a64.84,64.84,0,0,0-4.81-6.93c-.76,1.41-1.73,2.75-2.59,4.11s-1.67,2.65-2.45,4a57.18,57.18,0,0,0-4.27,9c-.07.18-.35.09-.27-.08C113.43,337,114.75,334,116.24,331Z" style="fill:#263238"></path><path d="M62.42,344c4.38-4.39,9.47-10.16,16.24-10.15,6.54,0,11.35,5.28,14.11,10.7,2.89,5.68,3.93,12.11,4.75,18.36,1,7.49,1.51,15,1.73,22.57.12,4.19.1,8.39,0,12.58a84.12,84.12,0,0,1-1,12.69c-.13.68-1.21.7-1.25,0-.2-3.53-.06-7.07,0-10.61s0-6.95-.16-10.43c-.26-7-.77-14.05-1.6-21-.72-6.1-1.29-12.38-3.12-18.28C90.48,345,87.39,338.94,82,336.61c-7.36-3.19-14.55,2.63-19.36,7.55C62.51,344.29,62.29,344.11,62.42,344Z" style="fill:#263238"></path><path d="M40.07,353.8h0c0,.9.08,1.79.14,2.65a16,16,0,0,1,7.18-3c6.22-.66,5.82,4.07,1.67,4.27a23.64,23.64,0,0,0-8.53,1.7c1,8.22,3.27,14.82,3.61,14.91a120.4,120.4,0,0,0,16.43-2.08c-1.55-3.3-5.07-7.67-3.27-8s3.75,3.55,4.75,7.73a78.92,78.92,0,0,0,12-3.29c-2.74-2.37-7-5.31-5.35-6.57s5,2.89,7,5.91a24.14,24.14,0,0,0,5.17-2.88c-3.69-5.41-12.67-6.52-11.5-10.43s9.58,1.52,13.35,8.76c4.43-4.59,5.73-11.1,5.26-16.65-3.86-.45-11.28.36-10.74-2.41s5.9-2.24,10.29-.63a15.38,15.38,0,0,0-2.58-6.1c-4.06-5.23-16.48,1.42-16.48,1.42s1.33-12.48-3.4-14.64c-2.73-1.24-7.55-1.23-12.38,1.62,2.71.22,6,1.08,7.3,3,1.69,2.4-1,3.7-2.66,2.6-1.19-.79-3.41-3.26-7.42-3.58a24.87,24.87,0,0,0-4.48,5c-.46.64-.88,1.32-1.31,2.06a17.09,17.09,0,0,1,14.54.26C64,338,61,343.62,56.33,341.45s-9-4.3-13.95-3.07A34.74,34.74,0,0,0,40,352.29a24.16,24.16,0,0,1,8-3.82c5.35-1.41,7,1.79,1.09,2.38A23.53,23.53,0,0,0,40.07,353.8Zm6.5-8.59c-.37-1.73,3.43-2.23,4.06-.82C51.16,345.59,46.94,347,46.57,345.21ZM79,354.81c.36-.94,2.9.13,2.66,1.31C81.39,357.7,78.69,355.76,79,354.81Zm-17.92,6.08c1.85-.74,4.74,3.86,2.72,4.92S59.6,361.5,61.12,360.89Z" style="fill:#FFC727"></path><path d="M44.86,373.42c2.79-4.66,5.55-9.35,8.48-13.93,1.36-2.13,2.79-4.22,4.27-6.27l-.66-.15-1.11-.22c-.86-.15-1.72-.27-2.59-.36s-1.63-.13-2.45-.14a12.63,12.63,0,0,0-2.61.14.07.07,0,1,1,0-.14c.87,0,1.76-.08,2.63-.09s1.7,0,2.54.06,1.59.13,2.37.25c.44.07.87.14,1.3.23.26.05.53.09.79.16,1.51-2.07,3.08-4.11,4.7-6.1A55.9,55.9,0,0,0,47.23,342c-.09,0,0-.15,0-.13a51.76,51.76,0,0,1,15.48,4.69c.89-1.09,1.79-2.18,2.69-3.26s2.09-2.4,3-3.69c.06-.08.18,0,.11.08A53,53,0,0,0,65,344h0a53,53,0,0,1,5.68,4.56q2.77,2.46,5.42,5.09c.07.06,0,.17-.1.1-1.74-1.73-3.54-3.38-5.42-4.94s-3.87-3-5.77-4.56v0c-.43.57-.86,1.14-1.3,1.7-.22.29-.43.58-.65.86,0,0,0,0,0,.06l-2.17,2.84a23.09,23.09,0,0,1,2.16,3.89c.62,1.32,1.17,2.68,1.67,4a58.61,58.61,0,0,1,2.32,8.74c0,.09-.11.13-.13,0a51,51,0,0,0-2.54-8.56c-.54-1.43-1.16-2.82-1.8-4.21s-1.28-2.47-1.82-3.74c-.62.83-1.25,1.66-1.86,2.5l-.52.74c0,.06,0,.13-.06.13h0c-1.92,2.67-3.74,5.41-5.51,8.18a2.5,2.5,0,0,1,.24.61c.11.33.22.67.32,1a19,19,0,0,1,.48,2.08c.12.66.22,1.32.28,2a16.79,16.79,0,0,0,.17,2.25c0,.11-.16.12-.14,0a7.49,7.49,0,0,0-.15-2.11c-.1-.72-.24-1.44-.4-2.14s-.33-1.28-.52-1.91c-.09-.32-.19-.63-.3-.94s-.14-.34-.2-.52q-1.24,2-2.46,3.92c-1.6,2.61-3.19,5.23-4.8,7.84C45,373.67,44.78,373.55,44.86,373.42Z" style="fill:#263238"></path><path d="M87.87,409.22c.07-2.64.49-5.3.77-7.93s.59-5.28.87-7.92c.55-5.08.85-10.29,2-15.27a22.06,22.06,0,0,1,6.21-11.43,10.18,10.18,0,0,1,6.1-2.91,10.47,10.47,0,0,1,6.47,2,22.48,22.48,0,0,1,5.44,5.73,56.69,56.69,0,0,1,4.25,6.89c0,.09-.1.15-.15.06a35.39,35.39,0,0,0-9.18-10.28,10.8,10.8,0,0,0-5.79-2.42A7.88,7.88,0,0,0,99.3,368c-3.08,2.68-4.87,6.62-5.93,10.49-1.26,4.59-1.66,9.41-2.29,14.11-.38,2.8-.73,5.6-1.1,8.39s-.6,5.63-1.19,8.38A.46.46,0,0,1,87.87,409.22Z" style="fill:#263238"></path><path d="M100.87,388.7a14.73,14.73,0,0,0,2.87,2.94c-.43-2.58-1-7.16.34-9.6,2-3.79,4.42-1.9,3.21,1.39a26.88,26.88,0,0,0-2,9.34,40.54,40.54,0,0,0,8.78,4.14,15,15,0,0,1-.29-4.52c.41-4.05,3.51-4,2.7.24a25.58,25.58,0,0,0-.42,4.95,90.42,90.42,0,0,0,13.68,3.08,39.87,39.87,0,0,0,5.66-10.07c-3.3-.83-10-1-9.83-3.37.19-3.17,6.65-.73,10.44,1.57a25.41,25.41,0,0,0,1.14-8.53,42,42,0,0,0-9.09-1.51c-6.79-.58-6.46-4.43-1.54-4.34,3.63.06,8.22,2.28,10.4,3.44-1.42-9.23-8.46-15.15-14.11-15.37-9.49-.39-6.08,11.43-6.08,11.43s-6.43-4.53-12.5-4.41S94.38,379.67,100.87,388.7Zm25.35-17.07c-.21-1.33,4-1.65,4.24.05C130.72,373.6,126.43,373,126.22,371.63ZM133,385.48c-.09-.86,1.74-1,2.15.08C135.47,386.27,133.11,386.34,133,385.48Zm-22.8.81c1.43.2,2.25,5.32-.22,5.22C108.15,391.43,109,386.12,110.24,386.29Z" style="fill:#FFC727"></path><path d="M112.22,392c.24-.63.45-1.28.65-1.93a20.28,20.28,0,0,0-.47,2C112.37,392.15,112.17,392.1,112.22,392Z" style="fill:#263238"></path><path d="M114.73,383.75c.44-1.31.94-2.6,1.45-3.89.27-.69.56-1.37.86-2.05a8.23,8.23,0,0,1,.84-1.71,13.12,13.12,0,0,1-.77-1.66c0-.05,0-.09.09-.05a19.23,19.23,0,0,1,1.85,2.87l.77,1.35c.54,0,1.08.16,1.6.25s1.14.22,1.7.35l1.69.39c.56.14,1.12.32,1.69.41.13,0,.07.23,0,.17a11.92,11.92,0,0,0-1.78-.46c-.54-.11-1.09-.21-1.64-.29s-1.11-.15-1.66-.2l-1.25-.11c.22.4.46.8.68,1.2a1.74,1.74,0,0,0,.1.19,5.27,5.27,0,0,1,1.36.16c.49.09,1,.18,1.47.29,1,.22,2,.45,3,.73,2,.57,4.08,1.22,6.11,1.89.11,0,0,.21-.07.17a59.43,59.43,0,0,0-6.14-1.71c-1-.21-1.94-.44-2.91-.64l-1.47-.31a10.84,10.84,0,0,1-1.13-.25c1,1.93,2,3.89,2.93,5.89,2,4.36,3.63,8.84,5.32,13.31,0,.11-.13.19-.17.07a121.78,121.78,0,0,0-5.66-13l-1.15-2.31c0,.15-.07.31-.1.47-.1.53-.19,1.06-.28,1.59-.18,1-.36,2.11-.52,3.18a36.57,36.57,0,0,0-.76,6.59c0,.14-.21.13-.19,0,.17-1.05.17-2.15.24-3.21s.15-2.22.28-3.33.26-2.13.44-3.19c.08-.53.18-1.06.27-1.58a3.37,3.37,0,0,1,.3-1.15c-.55-1.12-1.1-2.24-1.67-3.35s-1.06-2.08-1.6-3.12c-.23-.44-.48-.88-.72-1.32a13.47,13.47,0,0,1-.63,1.59c-.24.6-.49,1.2-.74,1.8-.54,1.32-1,2.66-1.55,4-.72,1.9-1.51,3.84-2.1,5.82C113.59,387.64,114.08,385.67,114.73,383.75Z" style="fill:#263238"></path><path d="M112.87,390c0-.15.09-.31.14-.46C113,389.73,112.92,389.89,112.87,390Z" style="fill:#263238"></path><polygon points="72 404.08 72.67 418.21 74.38 454.63 111.96 454.63 113.67 418.21 114.34 404.08 72 404.08" style="fill:#dbdbdb"></polygon><polygon points="72 404.08 72.42 413.02 113.87 414.02 114.34 404.08 72 404.08" style="fill:#a6a6a6"></polygon><rect x="69.33" y="398.37" width="47.69" height="11.43" transform="translate(186.34 808.17) rotate(180)" style="fill:#dbdbdb"></rect></g></svg>