<svg xmlns="http://www.w3.org/2000/svg" xmlns:xlink="http://www.w3.org/1999/xlink" width="500" zoomAndPan="magnify" viewBox="0 0 375 374.999991" height="500" preserveAspectRatio="xMidYMid meet" version="1.0"><defs><filter x="0%" y="0%" width="100%" height="100%" id="66a5e89b14"><feColorMatrix values="0 0 0 0 1 0 0 0 0 1 0 0 0 0 1 0 0 0 1 0" color-interpolation-filters="sRGB"/></filter><mask id="083f714f00"><g filter="url(#66a5e89b14)"><rect x="-37.5" width="450" fill="#000000" y="-37.499999" height="449.999989" fill-opacity="0.9765"/></g></mask><clipPath id="81d2aed1f6"><path d="M 159.542969 1.257812 L 318.105469 1.257812 L 318.105469 180.789062 L 159.542969 180.789062 Z M 159.542969 1.257812 " clip-rule="nonzero"/></clipPath><clipPath id="12c41bf5e8"><path d="M 0.890625 1.257812 L 159.152344 1.257812 L 159.152344 180.789062 L 0.890625 180.789062 Z M 0.890625 1.257812 " clip-rule="nonzero"/></clipPath><clipPath id="9273ade961"><rect x="0" width="319" y="0" height="182"/></clipPath></defs><g mask="url(#083f714f00)"><g transform="matrix(1, 0, 0, 1, 28, 100)"><g clip-path="url(#9273ade961)"><g clip-path="url(#81d2aed1f6)"><path fill="#004aad" d="M 159.542969 29.039062 C 163.398438 30.96875 167.757812 31.542969 171.882812 30.984375 C 173.945312 30.707031 175.957031 30.136719 177.835938 29.308594 C 179.714844 28.484375 181.457031 27.378906 182.957031 26.035156 C 183.15625 25.882812 183.328125 25.695312 183.503906 25.519531 L 184.300781 24.722656 L 184.550781 24.441406 L 184.816406 24.136719 C 184.902344 24.039062 184.976562 23.945312 185.054688 23.847656 C 185.679688 23.089844 186.296875 22.246094 186.863281 21.394531 C 188.007812 19.671875 189.019531 17.828125 190.0625 15.949219 C 191.097656 14.070312 192.160156 12.148438 193.429688 10.269531 C 194.691406 8.398438 196.179688 6.550781 198.066406 4.996094 C 199.007812 4.21875 200.042969 3.523438 201.152344 2.957031 L 201.964844 2.570312 L 202.148438 2.484375 C 202.214844 2.457031 202.304688 2.421875 202.378906 2.390625 L 202.859375 2.207031 L 203.339844 2.03125 L 203.800781 1.898438 C 204.105469 1.808594 204.410156 1.710938 204.722656 1.652344 C 205.035156 1.589844 205.347656 1.511719 205.660156 1.464844 L 206.609375 1.335938 L 207.5625 1.269531 C 207.878906 1.25 208.195312 1.261719 208.511719 1.257812 C 209.78125 1.28125 211.035156 1.441406 212.25 1.71875 C 213.472656 2 214.644531 2.410156 215.773438 2.898438 C 216.902344 3.394531 217.984375 3.972656 219.003906 4.640625 C 220.027344 5.308594 221.003906 6.046875 221.914062 6.851562 C 222.820312 7.664062 223.671875 8.539062 224.460938 9.472656 C 225.25 10.40625 225.960938 11.410156 226.613281 12.457031 C 227.265625 13.503906 227.828125 14.617188 228.308594 15.777344 C 228.429688 16.066406 228.550781 16.359375 228.648438 16.660156 C 228.753906 16.957031 228.867188 17.25 228.957031 17.554688 L 229.226562 18.46875 L 229.4375 19.390625 L 229.617188 20.175781 L 229.707031 20.566406 L 229.78125 21.039062 C 229.878906 21.667969 229.976562 22.308594 230.058594 22.9375 C 230.3125 25.34375 230.273438 27.757812 230.027344 30.117188 C 229.953125 30.703125 229.90625 31.300781 229.804688 31.878906 L 229.507812 33.621094 C 229.261719 34.761719 229.019531 35.910156 228.699219 37.023438 C 227.476562 41.507812 225.679688 45.707031 223.671875 49.714844 L 222.898438 51.199219 L 222.703125 51.574219 L 222.484375 51.972656 L 222.097656 52.675781 L 221.324219 54.089844 L 220.9375 54.792969 C 220.804688 55.03125 220.660156 55.273438 220.523438 55.515625 L 218.84375 58.402344 L 217.144531 61.210938 C 212.574219 68.660156 207.679688 75.753906 203.148438 82.890625 C 200.886719 86.457031 198.730469 90.046875 196.738281 93.675781 C 195.730469 95.488281 194.800781 97.324219 193.894531 99.164062 L 192.59375 101.941406 L 191.976562 103.359375 C 191.863281 103.617188 191.777344 103.832031 191.6875 104.054688 L 191.414062 104.730469 C 191.230469 105.167969 191.050781 105.648438 190.875 106.113281 L 190.605469 106.816406 L 190.355469 107.527344 C 190.011719 108.46875 189.707031 109.421875 189.402344 110.375 C 188.800781 112.285156 188.300781 114.21875 187.867188 116.160156 C 187.4375 118.101562 187.085938 120.054688 186.835938 122.007812 C 186.589844 123.964844 186.4375 125.921875 186.386719 127.867188 C 186.335938 129.8125 186.378906 131.746094 186.550781 133.65625 C 186.726562 135.5625 187.015625 137.445312 187.425781 139.277344 C 187.839844 141.113281 188.371094 142.898438 189.03125 144.625 C 189.695312 146.347656 190.5 147.996094 191.425781 149.5625 C 191.542969 149.757812 191.648438 149.960938 191.773438 150.152344 L 192.144531 150.722656 L 192.515625 151.296875 C 192.640625 151.484375 192.777344 151.664062 192.910156 151.847656 L 193.304688 152.402344 L 193.40625 152.539062 L 193.453125 152.609375 C 193.21875 152.308594 193.425781 152.570312 193.390625 152.523438 L 193.644531 152.835938 L 194.65625 154.085938 L 194.910156 154.398438 C 194.953125 154.445312 195 154.511719 195.035156 154.546875 L 195.140625 154.65625 L 195.574219 155.105469 L 196.421875 156.011719 L 197.425781 156.949219 C 197.761719 157.261719 198.085938 157.585938 198.453125 157.867188 C 201.269531 160.238281 204.476562 162.238281 207.941406 163.828125 C 211.414062 165.402344 215.117188 166.597656 218.925781 167.429688 C 219.398438 167.542969 219.882812 167.617188 220.359375 167.714844 C 220.839844 167.804688 221.316406 167.910156 221.800781 167.984375 L 223.253906 168.207031 L 223.976562 168.316406 L 224.707031 168.398438 L 226.171875 168.5625 L 226.351562 168.585938 C 226.3125 168.582031 226.574219 168.605469 226.285156 168.582031 L 226.386719 168.585938 L 226.789062 168.613281 L 227.589844 168.664062 L 229.191406 168.769531 L 230.398438 168.847656 L 230.753906 168.851562 L 233.597656 168.878906 C 234.0625 168.898438 234.566406 168.863281 235.0625 168.84375 L 236.546875 168.785156 C 237.042969 168.761719 237.535156 168.75 238.03125 168.722656 L 239.511719 168.582031 L 240.992188 168.445312 L 241.734375 168.375 L 242.472656 168.269531 L 245.421875 167.84375 C 246.398438 167.664062 247.371094 167.457031 248.34375 167.269531 C 249.324219 167.101562 250.285156 166.828125 251.25 166.59375 C 252.210938 166.347656 253.183594 166.132812 254.128906 165.816406 C 255.078125 165.523438 256.035156 165.246094 256.980469 164.941406 L 259.789062 163.925781 L 260.488281 163.671875 L 261.175781 163.378906 L 262.550781 162.800781 L 263.929688 162.226562 C 264.382812 162.019531 264.824219 161.792969 265.273438 161.582031 L 266.621094 160.9375 C 267.070312 160.722656 267.523438 160.519531 267.953125 160.269531 L 270.578125 158.84375 L 270.902344 158.667969 L 271.222656 158.472656 L 271.855469 158.082031 L 273.125 157.300781 C 273.546875 157.035156 273.984375 156.792969 274.390625 156.511719 L 275.617188 155.667969 C 277.28125 154.578125 278.828125 153.332031 280.410156 152.132812 L 282.671875 150.199219 L 283.234375 149.714844 L 283.308594 149.652344 C 283.355469 149.613281 283.136719 149.816406 283.265625 149.695312 L 283.410156 149.554688 L 283.699219 149.277344 L 284.863281 148.167969 L 286.027344 147.054688 C 286.234375 146.863281 286.382812 146.695312 286.546875 146.519531 L 287.035156 145.996094 L 288.011719 144.953125 L 288.503906 144.433594 L 288.75 144.171875 L 288.992188 143.886719 L 290.921875 141.609375 C 291.253906 141.238281 291.546875 140.832031 291.847656 140.4375 L 292.753906 139.246094 C 297.558594 132.871094 301.324219 125.6875 303.953125 118.105469 L 304.207031 117.398438 L 304.429688 116.679688 L 304.871094 115.242188 L 305.3125 113.800781 C 305.445312 113.316406 305.558594 112.828125 305.683594 112.34375 L 306.046875 110.882812 C 306.171875 110.394531 306.304688 109.910156 306.390625 109.417969 L 306.976562 106.464844 C 307.648438 102.507812 308.027344 98.503906 308.105469 94.488281 L 317.238281 97.261719 C 314.945312 100.519531 312.09375 103.316406 308.96875 105.566406 C 305.824219 107.796875 302.433594 109.515625 298.953125 110.824219 C 295.464844 112.113281 291.886719 112.992188 288.285156 113.542969 L 286.933594 113.71875 L 286.257812 113.804688 L 286.085938 113.828125 L 285.9375 113.84375 L 285.546875 113.882812 L 284.289062 113.996094 L 283.972656 114.027344 L 283.632812 114.050781 L 282.941406 114.09375 C 282.484375 114.121094 282.019531 114.160156 281.570312 114.179688 L 280.242188 114.226562 C 279.351562 114.265625 278.472656 114.257812 277.589844 114.273438 C 274.070312 114.265625 270.605469 114.089844 267.1875 113.808594 C 263.773438 113.527344 260.410156 113.175781 257.082031 112.851562 C 255.421875 112.695312 253.757812 112.539062 252.121094 112.410156 L 250.867188 112.3125 L 249.648438 112.230469 C 248.839844 112.171875 248.019531 112.136719 247.203125 112.089844 C 243.933594 111.925781 240.691406 111.910156 237.480469 112.101562 C 234.273438 112.289062 231.117188 112.75 228.035156 113.46875 C 227.644531 113.546875 227.269531 113.667969 226.886719 113.765625 C 226.507812 113.871094 226.121094 113.960938 225.746094 114.082031 L 224.621094 114.441406 C 224.433594 114.5 224.246094 114.554688 224.0625 114.625 L 223.507812 114.828125 L 222.402344 115.238281 C 222.40625 115.238281 222.34375 115.265625 222.402344 115.238281 L 222.367188 115.25 L 222.292969 115.28125 L 222.148438 115.34375 L 221.859375 115.464844 C 221.667969 115.546875 221.460938 115.632812 221.300781 115.707031 C 220.964844 115.859375 220.625 116.007812 220.273438 116.183594 C 219.921875 116.351562 219.574219 116.53125 219.230469 116.714844 C 217.851562 117.445312 216.53125 118.289062 215.265625 119.214844 C 214 120.136719 212.804688 121.15625 211.691406 122.265625 C 210.578125 123.371094 209.558594 124.566406 208.648438 125.839844 C 208.1875 126.472656 207.773438 127.136719 207.371094 127.804688 C 206.988281 128.484375 206.609375 129.171875 206.289062 129.882812 C 205.625 131.296875 205.125 132.78125 204.78125 134.304688 C 204.6875 134.683594 204.636719 135.070312 204.558594 135.457031 C 204.503906 135.84375 204.445312 136.230469 204.40625 136.621094 L 204.351562 137.207031 L 204.339844 137.351562 C 204.339844 137.34375 204.335938 137.421875 204.335938 137.34375 L 204.335938 137.464844 L 204.324219 137.78125 C 204.316406 137.988281 204.304688 138.207031 204.308594 138.402344 L 204.320312 138.957031 C 204.359375 140.476562 204.644531 142.054688 205.105469 143.5625 C 205.5625 145.078125 206.234375 146.539062 207.058594 147.917969 C 207.882812 149.300781 208.878906 150.585938 210.011719 151.742188 C 211.144531 152.90625 212.4375 153.914062 213.847656 154.742188 C 215.25 155.582031 216.796875 156.183594 218.410156 156.542969 C 220.027344 156.894531 221.714844 156.957031 223.386719 156.726562 C 221.753906 157.136719 220.03125 157.273438 218.324219 157.085938 C 216.621094 156.882812 214.933594 156.421875 213.359375 155.6875 C 211.785156 154.957031 210.304688 154.011719 208.972656 152.878906 C 207.636719 151.753906 206.421875 150.464844 205.394531 149.03125 C 204.359375 147.601562 203.472656 146.050781 202.808594 144.390625 C 202.140625 142.726562 201.648438 140.992188 201.453125 139.148438 L 201.382812 138.441406 C 201.367188 138.214844 201.363281 138.015625 201.351562 137.800781 L 201.335938 137.484375 L 201.332031 137.40625 L 201.332031 137.109375 L 201.339844 136.433594 C 201.347656 135.984375 201.378906 135.53125 201.40625 135.082031 C 201.457031 134.632812 201.484375 134.179688 201.558594 133.734375 C 201.808594 131.941406 202.257812 130.171875 202.890625 128.476562 C 203.515625 126.777344 204.324219 125.148438 205.265625 123.609375 C 206.203125 122.066406 207.273438 120.609375 208.457031 119.25 C 210.816406 116.527344 213.597656 114.179688 216.667969 112.277344 C 217.050781 112.039062 217.4375 111.804688 217.832031 111.582031 C 218.21875 111.355469 218.640625 111.136719 219.054688 110.914062 C 219.269531 110.796875 219.449219 110.710938 219.636719 110.617188 L 219.921875 110.476562 L 220.132812 110.371094 L 220.167969 110.351562 L 220.242188 110.316406 L 221.46875 109.765625 L 222.082031 109.492188 C 222.289062 109.402344 222.496094 109.324219 222.707031 109.242188 L 223.957031 108.75 C 224.375 108.585938 224.800781 108.457031 225.222656 108.308594 C 225.644531 108.167969 226.066406 108.007812 226.496094 107.886719 C 227.347656 107.640625 228.203125 107.367188 229.066406 107.164062 L 230.363281 106.847656 L 231.664062 106.574219 L 232.316406 106.441406 L 232.96875 106.324219 L 234.277344 106.097656 C 235.148438 105.96875 236.019531 105.839844 236.894531 105.734375 C 240.386719 105.320312 243.878906 105.140625 247.335938 105.113281 C 248.203125 105.113281 249.0625 105.097656 249.933594 105.121094 L 251.238281 105.140625 L 252.5 105.175781 C 254.222656 105.222656 255.914062 105.296875 257.613281 105.371094 C 260.992188 105.527344 264.335938 105.707031 267.640625 105.8125 C 270.941406 105.902344 274.203125 105.953125 277.410156 105.8125 C 278.207031 105.761719 279.011719 105.738281 279.800781 105.667969 L 280.992188 105.574219 C 281.382812 105.539062 281.753906 105.492188 282.132812 105.453125 L 282.703125 105.394531 L 282.988281 105.363281 L 283.300781 105.320312 L 284.550781 105.152344 L 284.863281 105.109375 L 284.941406 105.097656 C 284.925781 105.097656 285.035156 105.085938 284.914062 105.101562 L 284.949219 105.09375 L 285.089844 105.070312 L 285.664062 104.96875 L 286.804688 104.769531 C 289.832031 104.171875 292.78125 103.300781 295.570312 102.160156 C 298.347656 100.996094 300.941406 99.527344 303.234375 97.785156 C 305.511719 96.019531 307.449219 93.953125 308.964844 91.65625 L 317.878906 78.121094 L 318.097656 94.429688 C 318.15625 99.007812 317.855469 103.585938 317.21875 108.117188 L 316.648438 111.5 C 316.5625 112.066406 316.425781 112.621094 316.304688 113.179688 L 315.925781 114.855469 C 315.800781 115.414062 315.679688 115.972656 315.546875 116.527344 L 314.625 119.832031 L 314.394531 120.660156 L 314.125 121.476562 L 313.035156 124.730469 C 312.636719 125.800781 312.203125 126.859375 311.785156 127.925781 C 311.386719 129 310.894531 130.035156 310.425781 131.078125 C 309.949219 132.121094 309.496094 133.171875 308.949219 134.179688 C 308.421875 135.199219 307.90625 136.222656 307.363281 137.230469 L 305.625 140.199219 L 305.1875 140.941406 L 304.71875 141.660156 L 303.773438 143.101562 L 302.828125 144.539062 C 302.496094 145.007812 302.152344 145.46875 301.816406 145.933594 L 300.796875 147.320312 C 300.453125 147.785156 300.121094 148.253906 299.75 148.691406 L 297.566406 151.363281 L 297.289062 151.699219 L 296.988281 152.027344 L 296.386719 152.6875 L 295.179688 154.007812 L 294.574219 154.664062 C 294.375 154.882812 294.167969 155.113281 293.980469 155.289062 L 291.683594 157.542969 L 291.398438 157.828125 L 291.253906 157.96875 C 291.332031 157.894531 291.066406 158.144531 291.0625 158.144531 L 290.984375 158.21875 L 290.335938 158.789062 L 287.734375 161.074219 L 285.019531 163.21875 L 284.339844 163.75 C 284.113281 163.929688 283.871094 164.085938 283.636719 164.253906 L 282.226562 165.246094 L 280.8125 166.238281 C 280.339844 166.570312 279.84375 166.859375 279.359375 167.171875 L 277.894531 168.089844 L 277.164062 168.546875 L 276.796875 168.773438 L 276.421875 168.984375 L 273.40625 170.664062 C 272.910156 170.953125 272.386719 171.195312 271.875 171.453125 L 270.328125 172.214844 C 269.808594 172.464844 269.296875 172.722656 268.773438 172.964844 L 267.1875 173.644531 L 265.605469 174.320312 L 264.8125 174.65625 L 264.003906 174.957031 L 260.769531 176.148438 C 259.679688 176.511719 258.578125 176.839844 257.480469 177.183594 C 256.390625 177.546875 255.269531 177.8125 254.15625 178.101562 C 253.042969 178.382812 251.933594 178.6875 250.800781 178.894531 C 249.671875 179.117188 248.546875 179.355469 247.414062 179.5625 L 244 180.066406 L 243.144531 180.1875 L 242.285156 180.273438 L 240.566406 180.4375 L 238.847656 180.597656 C 238.273438 180.632812 237.695312 180.648438 237.121094 180.675781 L 235.390625 180.75 C 234.816406 180.769531 234.246094 180.804688 233.640625 180.789062 L 230.054688 180.734375 L 229.609375 180.726562 L 229.207031 180.699219 L 228.40625 180.644531 L 226.800781 180.535156 L 226 180.480469 L 225.597656 180.453125 L 225.5 180.449219 C 225.144531 180.421875 225.335938 180.433594 225.230469 180.421875 L 225.015625 180.398438 L 223.28125 180.203125 L 222.414062 180.101562 L 219.824219 179.703125 C 219.25 179.609375 218.675781 179.488281 218.105469 179.378906 C 217.53125 179.261719 216.957031 179.167969 216.386719 179.03125 C 211.828125 178.003906 207.328125 176.539062 203 174.539062 C 198.679688 172.535156 194.558594 169.925781 190.847656 166.730469 C 190.371094 166.347656 189.933594 165.917969 189.488281 165.492188 L 188.15625 164.214844 L 186.820312 162.757812 L 186.15625 162.027344 L 185.992188 161.839844 C 185.9375 161.777344 185.90625 161.734375 185.859375 161.679688 L 185.609375 161.363281 L 184.609375 160.101562 L 184.359375 159.785156 L 184.171875 159.542969 L 183.972656 159.253906 L 183.4375 158.496094 C 183.265625 158.238281 183.082031 157.988281 182.914062 157.730469 L 182.417969 156.945312 L 181.925781 156.15625 C 181.761719 155.894531 181.617188 155.621094 181.464844 155.355469 C 180.238281 153.207031 179.1875 150.96875 178.339844 148.671875 C 177.492188 146.371094 176.835938 144.023438 176.347656 141.660156 C 175.863281 139.292969 175.542969 136.914062 175.371094 134.539062 C 175.199219 132.167969 175.1875 129.800781 175.292969 127.457031 C 175.40625 125.109375 175.640625 122.785156 175.980469 120.484375 C 176.328125 118.1875 176.785156 115.917969 177.332031 113.679688 C 177.882812 111.441406 178.523438 109.230469 179.265625 107.058594 C 179.640625 105.976562 180.019531 104.894531 180.4375 103.828125 L 180.746094 103.027344 L 181.070312 102.230469 C 181.289062 101.703125 181.496094 101.179688 181.742188 100.632812 L 182.097656 99.824219 C 182.214844 99.554688 182.335938 99.273438 182.445312 99.042969 L 183.15625 97.527344 L 184.675781 94.515625 C 185.722656 92.53125 186.792969 90.566406 187.925781 88.65625 C 190.171875 84.820312 192.582031 81.132812 195.035156 77.527344 C 199.957031 70.324219 205.078125 63.464844 209.804688 56.476562 L 211.550781 53.847656 L 213.222656 51.234375 C 213.359375 51.015625 213.5 50.804688 213.640625 50.574219 L 214.054688 49.886719 L 214.890625 48.507812 L 215.308594 47.820312 L 215.488281 47.519531 L 215.683594 47.1875 L 216.453125 45.847656 C 218.453125 42.269531 220.242188 38.613281 221.460938 34.859375 C 222.726562 31.113281 223.34375 27.269531 223.195312 23.511719 L 223.089844 22.214844 L 223.0625 21.886719 L 222.996094 21.492188 L 222.796875 20.296875 L 222.761719 20.101562 L 222.746094 20 C 222.738281 19.9375 222.789062 20.171875 222.757812 20.035156 L 222.609375 19.394531 C 222.5625 19.179688 222.488281 18.972656 222.429688 18.757812 C 222.375 18.542969 222.300781 18.335938 222.226562 18.125 C 221.652344 16.433594 220.757812 14.804688 219.660156 13.320312 C 217.453125 10.359375 214.339844 7.949219 210.902344 6.894531 C 210.042969 6.636719 209.171875 6.46875 208.296875 6.394531 C 208.078125 6.382812 207.859375 6.351562 207.640625 6.355469 L 206.984375 6.355469 L 206.335938 6.402344 C 206.117188 6.417969 205.90625 6.460938 205.691406 6.488281 C 205.472656 6.507812 205.261719 6.566406 205.050781 6.613281 L 204.730469 6.679688 L 204.449219 6.761719 L 204.171875 6.839844 C 204.121094 6.851562 204.082031 6.859375 204.023438 6.878906 L 203.179688 7.207031 C 203.074219 7.25 203.214844 7.1875 203.171875 7.207031 C 202.34375 7.554688 201.550781 8.003906 200.792969 8.539062 C 199.277344 9.609375 197.917969 11.035156 196.664062 12.628906 C 195.410156 14.230469 194.253906 15.988281 193.066406 17.777344 C 191.878906 19.570312 190.675781 21.40625 189.296875 23.160156 C 188.601562 24.042969 187.882812 24.886719 187.074219 25.71875 L 186.769531 26.027344 L 186.476562 26.304688 L 186.167969 26.601562 L 185.839844 26.878906 L 185.179688 27.429688 C 184.960938 27.613281 184.75 27.804688 184.507812 27.960938 C 180.851562 30.710938 176.394531 32.121094 171.996094 32.300781 C 169.792969 32.394531 167.585938 32.164062 165.476562 31.621094 C 163.367188 31.085938 161.34375 30.203125 159.542969 29.039062 " fill-opacity="1" fill-rule="nonzero"/></g><g clip-path="url(#12c41bf5e8)"><path fill="#004aad" d="M 159.449219 29.039062 C 155.59375 30.96875 151.234375 31.542969 147.113281 30.984375 C 145.046875 30.707031 143.035156 30.136719 141.160156 29.308594 C 139.277344 28.484375 137.539062 27.378906 136.039062 26.035156 C 135.839844 25.882812 135.667969 25.695312 135.492188 25.519531 L 134.957031 24.988281 L 134.695312 24.722656 L 134.445312 24.441406 L 134.175781 24.136719 C 134.09375 24.039062 134.019531 23.945312 133.941406 23.847656 C 133.3125 23.089844 132.699219 22.246094 132.132812 21.394531 C 130.988281 19.671875 129.972656 17.828125 128.933594 15.949219 C 127.898438 14.070312 126.835938 12.148438 125.566406 10.269531 C 124.300781 8.398438 122.8125 6.550781 120.925781 4.996094 C 119.988281 4.21875 118.953125 3.523438 117.84375 2.957031 L 117.027344 2.570312 L 116.847656 2.484375 C 116.78125 2.457031 116.691406 2.421875 116.617188 2.390625 L 116.136719 2.207031 L 115.652344 2.03125 L 115.195312 1.898438 C 114.890625 1.808594 114.585938 1.710938 114.269531 1.652344 C 113.957031 1.589844 113.648438 1.511719 113.332031 1.464844 L 112.386719 1.335938 L 111.433594 1.269531 C 111.117188 1.25 110.800781 1.261719 110.484375 1.257812 C 109.214844 1.28125 107.960938 1.441406 106.742188 1.71875 C 105.523438 2 104.351562 2.410156 103.222656 2.898438 C 102.09375 3.394531 101.007812 3.972656 99.988281 4.640625 C 98.96875 5.308594 97.992188 6.046875 97.078125 6.851562 C 96.171875 7.664062 95.324219 8.539062 94.535156 9.472656 C 93.742188 10.40625 93.03125 11.410156 92.382812 12.457031 C 91.730469 13.503906 91.164062 14.617188 90.6875 15.777344 C 90.566406 16.066406 90.445312 16.359375 90.34375 16.660156 C 90.242188 16.957031 90.128906 17.25 90.039062 17.554688 L 89.769531 18.46875 L 89.558594 19.390625 L 89.378906 20.175781 L 89.289062 20.566406 L 89.214844 21.039062 C 89.117188 21.667969 89.019531 22.308594 88.9375 22.9375 C 88.683594 25.34375 88.71875 27.757812 88.964844 30.117188 C 89.042969 30.703125 89.089844 31.300781 89.1875 31.878906 L 89.488281 33.621094 C 89.734375 34.761719 89.976562 35.910156 90.296875 37.023438 C 91.519531 41.507812 93.316406 45.707031 95.324219 49.714844 L 96.097656 51.199219 L 96.289062 51.574219 L 96.507812 51.972656 L 96.894531 52.675781 L 97.671875 54.089844 L 98.058594 54.792969 C 98.1875 55.03125 98.335938 55.273438 98.472656 55.515625 L 100.148438 58.402344 L 101.847656 61.210938 C 106.421875 68.660156 111.316406 75.753906 115.84375 82.890625 C 118.109375 86.457031 120.265625 90.046875 122.257812 93.675781 C 123.265625 95.488281 124.195312 97.324219 125.101562 99.164062 L 126.398438 101.941406 L 127.015625 103.359375 C 127.132812 103.617188 127.214844 103.832031 127.308594 104.054688 L 127.582031 104.730469 C 127.765625 105.167969 127.941406 105.648438 128.121094 106.113281 L 128.390625 106.816406 L 128.640625 107.527344 C 128.984375 108.46875 129.289062 109.421875 129.59375 110.375 C 130.195312 112.285156 130.691406 114.21875 131.128906 116.160156 C 131.558594 118.101562 131.90625 120.054688 132.160156 122.007812 C 132.40625 123.964844 132.558594 125.921875 132.609375 127.867188 C 132.660156 129.8125 132.617188 131.746094 132.445312 133.65625 C 132.269531 135.5625 131.980469 137.445312 131.570312 139.277344 C 131.15625 141.113281 130.625 142.898438 129.964844 144.625 C 129.300781 146.347656 128.496094 147.996094 127.570312 149.5625 C 127.453125 149.757812 127.347656 149.960938 127.222656 150.152344 L 126.851562 150.722656 L 126.480469 151.296875 C 126.355469 151.484375 126.214844 151.664062 126.085938 151.847656 L 125.6875 152.402344 L 125.589844 152.539062 L 125.539062 152.609375 C 125.777344 152.308594 125.570312 152.570312 125.605469 152.523438 L 124.082031 154.398438 C 124.042969 154.445312 123.996094 154.511719 123.960938 154.546875 L 123.851562 154.65625 L 123.421875 155.105469 L 122.574219 156.011719 L 121.570312 156.949219 C 121.234375 157.261719 120.910156 157.585938 120.542969 157.867188 C 117.726562 160.238281 114.519531 162.238281 111.054688 163.828125 C 107.582031 165.402344 103.878906 166.597656 100.070312 167.429688 C 99.597656 167.542969 99.113281 167.617188 98.632812 167.714844 C 98.15625 167.804688 97.679688 167.910156 97.195312 167.984375 L 95.742188 168.207031 L 95.015625 168.316406 L 92.824219 168.5625 L 92.640625 168.585938 C 92.683594 168.582031 92.421875 168.605469 92.710938 168.582031 L 92.609375 168.585938 L 92.207031 168.613281 L 91.40625 168.664062 L 89.800781 168.769531 L 88.597656 168.847656 L 88.242188 168.851562 L 85.398438 168.878906 C 84.933594 168.898438 84.425781 168.863281 83.933594 168.84375 L 82.449219 168.785156 C 81.953125 168.761719 81.457031 168.75 80.964844 168.722656 L 79.484375 168.582031 L 78 168.445312 L 77.261719 168.375 L 76.523438 168.269531 L 73.574219 167.84375 C 72.597656 167.664062 71.625 167.457031 70.648438 167.269531 C 69.667969 167.101562 68.710938 166.828125 67.746094 166.59375 C 66.78125 166.347656 65.8125 166.132812 64.867188 165.816406 C 63.917969 165.523438 62.960938 165.246094 62.015625 164.941406 L 59.207031 163.925781 L 58.503906 163.671875 L 57.816406 163.378906 L 56.441406 162.800781 L 55.066406 162.226562 C 54.613281 162.019531 54.167969 161.792969 53.71875 161.582031 L 52.375 160.9375 C 51.925781 160.722656 51.472656 160.519531 51.039062 160.269531 L 48.417969 158.84375 L 48.089844 158.667969 L 47.140625 158.082031 L 45.867188 157.300781 C 45.449219 157.035156 45.011719 156.792969 44.605469 156.511719 L 43.378906 155.667969 C 41.710938 154.578125 40.167969 153.332031 38.585938 152.132812 L 36.324219 150.199219 L 35.757812 149.714844 L 35.6875 149.652344 C 35.640625 149.613281 35.855469 149.816406 35.730469 149.695312 L 35.585938 149.554688 L 35.292969 149.277344 L 34.128906 148.167969 L 32.96875 147.054688 C 32.761719 146.863281 32.613281 146.695312 32.449219 146.519531 L 31.960938 145.996094 L 30.980469 144.953125 L 30.492188 144.433594 L 30.246094 144.171875 L 30.003906 143.886719 L 28.074219 141.609375 C 27.738281 141.238281 27.449219 140.832031 27.144531 140.4375 L 26.238281 139.246094 C 21.4375 132.871094 17.671875 125.6875 15.042969 118.105469 L 14.785156 117.398438 L 14.566406 116.679688 L 14.125 115.242188 L 13.683594 113.800781 C 13.550781 113.316406 13.4375 112.828125 13.3125 112.34375 L 12.945312 110.882812 C 12.824219 110.394531 12.691406 109.910156 12.605469 109.417969 L 12.019531 106.464844 C 11.34375 102.507812 10.96875 98.503906 10.890625 94.488281 L 1.757812 97.261719 C 4.050781 100.519531 6.902344 103.316406 10.023438 105.566406 C 13.167969 107.796875 16.5625 109.515625 20.042969 110.824219 C 23.527344 112.113281 27.109375 112.992188 30.707031 113.542969 L 32.0625 113.71875 L 32.738281 113.804688 L 32.90625 113.828125 L 33.058594 113.84375 L 33.449219 113.882812 L 34.707031 113.996094 L 35.019531 114.027344 L 35.363281 114.050781 L 36.050781 114.09375 C 36.507812 114.121094 36.976562 114.160156 37.425781 114.179688 L 38.753906 114.226562 C 39.644531 114.265625 40.519531 114.257812 41.402344 114.273438 C 44.925781 114.265625 48.390625 114.089844 51.808594 113.808594 C 55.21875 113.527344 58.582031 113.175781 61.914062 112.851562 C 63.574219 112.695312 65.238281 112.539062 66.871094 112.410156 L 68.128906 112.3125 L 69.347656 112.230469 C 70.15625 112.171875 70.976562 112.136719 71.792969 112.089844 C 75.058594 111.925781 78.304688 111.910156 81.511719 112.101562 C 84.722656 112.289062 87.878906 112.75 90.960938 113.46875 C 91.347656 113.546875 91.722656 113.667969 92.105469 113.765625 C 92.484375 113.871094 92.871094 113.960938 93.246094 114.082031 L 94.371094 114.441406 C 94.558594 114.5 94.75 114.554688 94.933594 114.625 L 95.484375 114.828125 L 96.59375 115.238281 C 96.585938 115.238281 96.652344 115.265625 96.589844 115.238281 L 96.628906 115.25 L 96.699219 115.28125 L 96.84375 115.34375 L 97.136719 115.464844 C 97.328125 115.546875 97.535156 115.632812 97.695312 115.707031 C 98.03125 115.859375 98.367188 116.007812 98.722656 116.183594 C 99.074219 116.351562 99.417969 116.53125 99.761719 116.714844 C 101.144531 117.445312 102.464844 118.289062 103.726562 119.214844 C 104.996094 120.136719 106.191406 121.15625 107.300781 122.265625 C 108.414062 123.371094 109.4375 124.566406 110.34375 125.839844 C 110.808594 126.472656 111.222656 127.136719 111.625 127.804688 C 112.007812 128.484375 112.382812 129.171875 112.703125 129.882812 C 113.367188 131.296875 113.871094 132.78125 114.210938 134.304688 C 114.308594 134.683594 114.359375 135.070312 114.4375 135.457031 C 114.488281 135.84375 114.550781 136.230469 114.589844 136.621094 L 114.640625 137.207031 L 114.65625 137.351562 C 114.65625 137.34375 114.65625 137.421875 114.65625 137.34375 L 114.660156 137.464844 L 114.671875 137.78125 C 114.675781 137.988281 114.6875 138.207031 114.6875 138.402344 L 114.675781 138.957031 C 114.636719 140.476562 114.351562 142.054688 113.890625 143.5625 C 113.433594 145.078125 112.761719 146.539062 111.933594 147.917969 C 111.113281 149.300781 110.117188 150.585938 108.980469 151.742188 C 107.851562 152.90625 106.558594 153.914062 105.148438 154.742188 C 103.746094 155.582031 102.195312 156.183594 100.585938 156.542969 C 98.96875 156.894531 97.28125 156.957031 95.609375 156.726562 C 97.242188 157.136719 98.964844 157.273438 100.671875 157.085938 C 102.375 156.882812 104.0625 156.421875 105.632812 155.6875 C 107.210938 154.957031 108.691406 154.011719 110.023438 152.878906 C 111.359375 151.753906 112.574219 150.464844 113.601562 149.03125 C 114.636719 147.601562 115.523438 146.050781 116.1875 144.390625 C 116.855469 142.726562 117.347656 140.992188 117.539062 139.148438 L 117.609375 138.441406 C 117.628906 138.214844 117.632812 138.015625 117.644531 137.800781 L 117.660156 137.484375 L 117.664062 137.40625 L 117.664062 137.109375 L 117.65625 136.433594 C 117.648438 135.984375 117.617188 135.53125 117.585938 135.082031 C 117.539062 134.632812 117.511719 134.179688 117.4375 133.734375 C 117.183594 131.941406 116.738281 130.171875 116.105469 128.476562 C 115.480469 126.777344 114.671875 125.148438 113.730469 123.609375 C 112.792969 122.066406 111.71875 120.609375 110.539062 119.25 C 108.179688 116.527344 105.398438 114.179688 102.328125 112.277344 C 101.941406 112.039062 101.554688 111.804688 101.160156 111.582031 C 100.777344 111.355469 100.355469 111.136719 99.941406 110.914062 C 99.726562 110.796875 99.546875 110.710938 99.355469 110.617188 L 98.863281 110.371094 L 98.828125 110.351562 L 98.753906 110.316406 L 97.527344 109.765625 L 96.914062 109.492188 C 96.707031 109.402344 96.496094 109.324219 96.289062 109.242188 L 95.039062 108.75 C 94.621094 108.585938 94.195312 108.457031 93.773438 108.308594 C 93.351562 108.167969 92.929688 108.007812 92.5 107.886719 C 91.644531 107.640625 90.792969 107.367188 89.929688 107.164062 L 88.632812 106.847656 L 87.328125 106.574219 L 86.679688 106.441406 L 86.027344 106.324219 L 84.71875 106.097656 C 83.847656 105.96875 82.972656 105.839844 82.101562 105.734375 C 78.609375 105.320312 75.117188 105.140625 71.65625 105.113281 C 70.792969 105.113281 69.933594 105.097656 69.0625 105.121094 L 67.757812 105.140625 L 66.492188 105.175781 C 64.769531 105.222656 63.078125 105.296875 61.382812 105.371094 C 58.003906 105.527344 54.65625 105.707031 51.355469 105.8125 C 48.054688 105.902344 44.792969 105.953125 41.585938 105.8125 C 40.789062 105.761719 39.984375 105.738281 39.191406 105.667969 L 38.003906 105.574219 C 37.613281 105.539062 37.242188 105.492188 36.859375 105.453125 L 36.292969 105.394531 L 36.007812 105.363281 L 35.695312 105.320312 L 34.445312 105.152344 L 34.132812 105.109375 L 34.054688 105.097656 C 34.070312 105.097656 33.960938 105.085938 34.082031 105.101562 L 34.046875 105.09375 L 33.902344 105.070312 L 33.332031 104.96875 L 32.191406 104.769531 C 29.164062 104.171875 26.214844 103.300781 23.425781 102.160156 C 20.648438 100.996094 18.054688 99.527344 15.757812 97.785156 C 13.484375 96.019531 11.546875 93.953125 10.03125 91.65625 L 1.113281 78.121094 L 0.898438 94.429688 C 0.835938 99.007812 1.136719 103.585938 1.773438 108.117188 L 2.347656 111.5 C 2.433594 112.066406 2.570312 112.621094 2.691406 113.179688 L 3.066406 114.855469 C 3.195312 115.414062 3.3125 115.972656 3.449219 116.527344 L 4.371094 119.832031 L 4.601562 120.660156 L 4.871094 121.476562 L 5.960938 124.730469 C 6.359375 125.800781 6.792969 126.859375 7.207031 127.925781 C 7.605469 129 8.101562 130.035156 8.570312 131.078125 C 9.046875 132.121094 9.5 133.171875 10.046875 134.179688 C 10.574219 135.199219 11.089844 136.222656 11.632812 137.230469 L 13.367188 140.199219 L 13.804688 140.941406 L 14.277344 141.660156 L 15.21875 143.101562 L 16.167969 144.539062 C 16.496094 145.007812 16.84375 145.46875 17.179688 145.933594 L 18.199219 147.320312 C 18.539062 147.785156 18.871094 148.253906 19.246094 148.691406 L 21.429688 151.363281 L 21.703125 151.699219 L 22.003906 152.027344 L 22.609375 152.6875 L 23.816406 154.007812 L 24.421875 154.664062 C 24.621094 154.882812 24.828125 155.113281 25.015625 155.289062 L 27.3125 157.542969 L 27.597656 157.828125 L 27.742188 157.96875 C 27.664062 157.894531 27.925781 158.144531 27.929688 158.144531 L 28.011719 158.21875 L 28.660156 158.789062 L 31.261719 161.074219 L 33.972656 163.21875 L 34.65625 163.75 C 34.882812 163.929688 35.121094 164.085938 35.355469 164.253906 L 38.183594 166.238281 C 38.652344 166.570312 39.152344 166.859375 39.636719 167.171875 L 41.097656 168.089844 L 41.832031 168.546875 L 42.199219 168.773438 L 42.574219 168.984375 L 45.589844 170.664062 C 46.085938 170.953125 46.605469 171.195312 47.121094 171.453125 L 48.667969 172.214844 C 49.1875 172.464844 49.699219 172.722656 50.222656 172.964844 L 51.804688 173.644531 L 53.390625 174.320312 L 54.183594 174.65625 L 54.992188 174.957031 L 58.226562 176.148438 C 59.316406 176.511719 60.417969 176.839844 61.515625 177.183594 C 62.605469 177.546875 63.726562 177.8125 64.839844 178.101562 C 65.953125 178.382812 67.0625 178.6875 68.195312 178.894531 C 69.324219 179.117188 70.449219 179.355469 71.578125 179.5625 L 74.996094 180.066406 L 75.847656 180.1875 L 76.707031 180.273438 L 78.429688 180.4375 L 80.148438 180.597656 C 80.722656 180.632812 81.300781 180.648438 81.875 180.675781 L 83.605469 180.75 C 84.179688 180.769531 84.746094 180.804688 85.355469 180.789062 L 88.941406 180.734375 L 89.386719 180.726562 L 89.789062 180.699219 L 92.191406 180.535156 L 92.996094 180.480469 L 93.394531 180.453125 L 93.496094 180.449219 C 93.851562 180.421875 93.65625 180.433594 93.765625 180.421875 L 93.980469 180.398438 L 95.714844 180.203125 L 96.582031 180.101562 L 99.171875 179.703125 C 99.746094 179.609375 100.316406 179.488281 100.890625 179.378906 C 101.464844 179.261719 102.039062 179.167969 102.605469 179.03125 C 107.167969 178.003906 111.667969 176.539062 115.992188 174.539062 C 120.3125 172.535156 124.4375 169.925781 128.148438 166.730469 C 128.625 166.347656 129.0625 165.917969 129.507812 165.492188 L 130.839844 164.214844 L 132.175781 162.757812 L 132.839844 162.027344 L 133.003906 161.839844 C 133.058594 161.777344 133.089844 161.734375 133.132812 161.679688 L 133.382812 161.363281 L 134.382812 160.101562 L 134.632812 159.785156 L 134.824219 159.542969 L 135.023438 159.253906 L 135.554688 158.496094 C 135.730469 158.238281 135.914062 157.988281 136.082031 157.730469 L 136.578125 156.945312 L 137.070312 156.15625 C 137.234375 155.894531 137.378906 155.621094 137.53125 155.355469 C 138.757812 153.207031 139.808594 150.96875 140.652344 148.671875 C 141.5 146.371094 142.160156 144.023438 142.648438 141.660156 C 143.132812 139.292969 143.453125 136.914062 143.625 134.539062 C 143.792969 132.167969 143.808594 129.800781 143.699219 127.457031 C 143.589844 125.109375 143.355469 122.785156 143.015625 120.484375 C 142.667969 118.1875 142.210938 115.917969 141.664062 113.679688 C 141.113281 111.441406 140.472656 109.230469 139.730469 107.058594 C 139.355469 105.976562 138.976562 104.894531 138.558594 103.828125 L 138.25 103.027344 L 137.925781 102.230469 C 137.707031 101.703125 137.496094 101.179688 137.253906 100.632812 L 136.898438 99.824219 C 136.78125 99.554688 136.660156 99.273438 136.546875 99.042969 L 135.839844 97.527344 L 134.320312 94.515625 C 133.273438 92.53125 132.203125 90.566406 131.070312 88.65625 C 128.820312 84.820312 126.414062 81.132812 123.960938 77.527344 C 119.039062 70.324219 113.917969 63.464844 109.191406 56.476562 L 107.445312 53.847656 L 105.773438 51.234375 C 105.632812 51.015625 105.496094 50.804688 105.355469 50.574219 L 104.9375 49.886719 L 104.105469 48.507812 L 103.6875 47.820312 L 103.507812 47.519531 L 103.3125 47.1875 L 102.542969 45.847656 C 100.542969 42.269531 98.753906 38.613281 97.53125 34.859375 C 96.269531 31.113281 95.652344 27.269531 95.800781 23.511719 L 95.90625 22.214844 L 95.929688 21.886719 L 95.996094 21.492188 L 96.128906 20.695312 L 96.199219 20.296875 L 96.230469 20.101562 L 96.246094 20 C 96.257812 19.9375 96.207031 20.171875 96.238281 20.035156 L 96.386719 19.394531 C 96.433594 19.179688 96.507812 18.972656 96.566406 18.757812 C 96.621094 18.542969 96.695312 18.335938 96.769531 18.125 C 97.34375 16.433594 98.238281 14.804688 99.335938 13.320312 C 101.542969 10.359375 104.65625 7.949219 108.09375 6.894531 C 108.949219 6.636719 109.824219 6.46875 110.699219 6.394531 C 110.917969 6.382812 111.136719 6.351562 111.355469 6.355469 L 112.007812 6.355469 L 112.660156 6.402344 C 112.875 6.417969 113.089844 6.460938 113.304688 6.488281 C 113.523438 6.507812 113.734375 6.566406 113.945312 6.613281 L 114.265625 6.679688 L 114.542969 6.761719 L 114.824219 6.839844 C 114.875 6.851562 114.914062 6.859375 114.972656 6.878906 L 115.816406 7.207031 C 115.921875 7.25 115.78125 7.1875 115.824219 7.207031 C 116.652344 7.554688 117.445312 8.003906 118.203125 8.539062 C 119.71875 9.609375 121.078125 11.035156 122.332031 12.628906 C 123.582031 14.230469 124.742188 15.988281 125.929688 17.777344 C 127.113281 19.570312 128.320312 21.40625 129.699219 23.160156 C 130.394531 24.042969 131.109375 24.886719 131.921875 25.71875 L 132.226562 26.027344 L 132.519531 26.304688 L 132.828125 26.601562 L 133.15625 26.878906 L 133.8125 27.429688 C 134.035156 27.613281 134.246094 27.804688 134.484375 27.960938 C 138.144531 30.710938 142.597656 32.121094 147 32.300781 C 149.203125 32.394531 151.410156 32.164062 153.519531 31.621094 C 155.628906 31.085938 157.652344 30.203125 159.449219 29.039062 " fill-opacity="1" fill-rule="nonzero"/></g></g></g></g></svg>